<?xml version="1.0" encoding="utf-8"?>
<!-- Generator: Adobe Illustrator 24.0.2, SVG Export Plug-In . SVG Version: 6.00 Build 0)  -->
<svg version="1.1" id="Capa_1" xmlns="http://www.w3.org/2000/svg" xmlns:xlink="http://www.w3.org/1999/xlink" x="0px" y="0px"
	 viewBox="0 0 1366 768" style="enable-background:new 0 0 1366 768;" xml:space="preserve">
<style type="text/css">
	.st0{fill:#15C3D6;}
	.st1{fill:#9FCCFA;}
	.st2{fill:#82E9CD;}
	.st3{fill:#91E9F0;}
	.st4{fill:#68C8EC;}
	.st5{fill:#60DAE6;}
	.st6{fill:#AEEBF8;}
	.st7{fill:#56DAD0;}
	.st8{fill:#3397D8;}
	.st9{fill:#9DF1D3;}
	.st10{fill:#D4D5D6;}
	.st11{fill:#B2DAEF;}
	.st12{fill:#CCFAFE;}
	.st13{fill:#F1FDFC;}
	.st14{fill:#BF1515;}
	.st15{fill:#F33030;}
	.st16{fill:none;}
</style>
<g>
	<g>
		<path class="st0" d="M683.5,644.7c-223.9,0-447.8,0-671.6,0.2c-6.4,0-7.9-1.5-7.9-8.4C4.2,469.3,4.2,302,4,134.8
			c0-6,0.7-7.7,6.8-7.7c449.2,0.2,898.4,0.2,1347.6,0.1c5.2,0,6.5,1.3,6.5,7.1c-0.1,167.9-0.2,335.7,0.1,503.6c0,7-2.1,7.1-7.3,7.1
			C1133,644.7,908.2,644.7,683.5,644.7z M752.6,267.3c-7.3,0-8.4,7.1-11.4,11.9c-5.8,7-11.6,13.9-17.4,20.9
			c-1.5-16.6-4.6-32.8-10.3-48.2c-14.3-38.5-37.5-68-74.4-82.2c-47.5-18.2-99.9,4.9-128.7,54.8c-32.3,55.9-32.5,138.1,9.5,195.4
			c-3.4,15.3-6.9,30.4-8.8,46c-11.8-3.9-22.4,0.1-32.3,6.8c-25,17.1-30.8,60-12.4,89.4c16.9,26.9,49.8,28.4,68.5,3.1
			c3,2,4.8,5.1,6.9,7.9c34,47.3,93.1,55.9,137.4,20.1c16.4-13.3,27.4-31.4,37.6-50.3c8.9,13.9,18.2,27.3,29.8,38.8
			c65.9,65.7,160.2,50,209.8-25.9c0.2-0.4,0.4-0.7,0.4-1.2c4.4-4,6.8-9.6,9.8-14.7c11.6-20,17.9-42.4,24-64.8
			c1.3,3.4,2.6,6.7,3.9,10.1c9,25.2,20.8,48.7,37.5,69c-4.6,12.3-9.3,24.6-13.9,36.9c-4.5,0-7.7,1.7-8.5,7c-0.7,4.8,2.1,7.1,5.6,9.1
			c6.5,3.7,13,7.5,19.4,11.3c2.9,1.7,5.9,2.6,8.6-0.1c2.7-2.7,2.3-6.2,1.2-9.4c-1-2.9-2.9-5.2-1.1-8.5c3.8-7.1,5.2-15.5,9.9-22.2
			c29.5,27.4,63.2,44.2,102.4,45.9c57.1,2.4,103.1-23,138.9-69.6c44.6-57.9,59.2-125.6,51.9-199.7c-1.3-13.4-3.8-26.6-5.7-39.9
			c4-2.4,5.8-6.7,7.6-10.7c15.7-35.4,17.5-71.5,1.9-107c-15.5-35.1-40.6-56.3-78.4-53.6c-16.7,1.2-32,7.3-43.2,22
			c-2.4-0.7-5-1.2-7.3-2.1c-48.9-19.5-95.9-15.1-140.8,13.3c-9.2,5.8-17.9,12.8-26.8,19.1c-21.1-29.7-48.1-45.8-83.6-45.5
			c-45.5,0.5-85.6,44.2-95.3,84.6c-2.8,0.8-5.6-0.2-8.4-0.7c-42-7.9-79.5,2.9-112.4,32.5C753.6,267.1,753.1,267.2,752.6,267.3z
			 M237,561.9c19.4,29.9,45.8,48,79.6,49.2c35.4,1.3,63.2-16.7,84.4-46.7c23.7-33.6,30.2-72.3,26.2-113.2
			c-2.2-21.6-7.7-42.7-20.4-60.5c0.2-1.9,0.4-3.7,0.7-5.5c1.1-1.8,2.3-3.5,3-5.4c21.8-59,18.3-115.9-15.8-168.1
			c-45.2-69.1-128.7-70.7-176.5-3.9c-32.7,45.6-39.2,97.5-25.1,152.6c5,19.3,12.3,37.6,25.3,52.4c0.6,1.9,1.3,3.7,1.9,5.5
			c-6,13.3-7.9,27.7-8.8,42.2c-11-0.1-21.9-0.4-31.9,6.5c-21.3,14.6-30.6,50.2-20.6,76.9c14.5,39.1,52.2,44.8,73.6,20.3
			C233.6,562.9,235.5,562.6,237,561.9z M771.3,209.4c0-13.5-8.7-24.8-19.1-24.9c-10.6-0.1-19.6,11-19.8,24.4
			c-0.2,13.8,8.8,25.4,19.8,25.2C763,234,771.3,223.3,771.3,209.4z M99.3,215.5c-0.1,14,8.1,24.4,19.2,24.5
			c11.1,0.1,19.6-10.4,19.6-24.2c0.1-13.8-8.4-24.4-19.4-24.5C107.6,191.3,99.4,201.6,99.3,215.5z M831,179c-0.6-7-3.3-12.1-10-12.9
			c-5.4-0.6-10.6,6.2-10.5,13.1c0.1,7.2,5.1,13.3,10.9,12.6C828.3,190.9,830.6,185.7,831,179z M128,336.4c0.1,8,4.7,14.1,10,13.5
			c6.8-0.8,9.6-6.1,10.1-12.7c0.5-6.8-5.2-13.6-10.7-12.8C130.7,325.3,128.3,330.6,128,336.4z M1287.1,621.2
			c6.6-0.4,9.6-4.6,9.9-11.2c0.4-6.9-2-12.6-9-12.9c-6.5-0.4-9.6,4.5-9.9,11.1C1277.7,615,1279.9,620.2,1287.1,621.2z"/>
		<path class="st1" d="M1031.9,554.5c-16.7-20.3-28.5-43.8-37.5-69c-1.2-3.4-2.6-6.8-3.9-10.1c-4.3-15.8-7.6-31.8-10.2-48
			c-2.8-27.6-2.1-55.3,0.1-82.9c0.5-1.4,1.2-2.8,1.5-4.2c6.6-41.1,21.3-78.3,44.6-111.7c8.2-11.8,19.6-20.3,27.1-32.5
			c8.9-6.4,17.6-13.3,26.8-19.1c44.9-28.3,92-32.7,140.8-13.3c2.3,0.9,4.9,1.4,7.3,2.1c1.1,0.9,2.1,2.1,3.4,2.7
			c46,25,77.5,64.3,97.3,115.3c4,10.4,7.7,21,11.5,31.4c2,13.3,4.5,26.5,5.7,39.9c7.2,74-7.3,141.8-51.9,199.7
			c-35.9,46.5-81.9,72-138.9,69.6c-39.2-1.7-72.9-18.5-102.4-45.9c6.7-23.1,17.6-44.4,25.7-66.9c1.2-3.3,3.2-2.6,5.5-1.8
			c3.3,1.1,6.5,0.4,7.7-3.5c1.3-4.1,0.7-7.9-3-10.4c-2.2-1.4-4.5-2.7-6.7-4c-2.3-1.3-3.5-2.9-2.2-5.9c1.3-3.1,3.3-2.8,5.6-1.9
			c13.3,5.1,27,6.1,41,4.1c4.1,16.4,10.8,31.7,19.8,45.5c7.9,12.1,21.4,10,26.8-3.6c1.2-3,2.1-6.3,2.8-9.6
			c4.5-21.2,9-42.3,13.4-63.6c1.1-5.4,3-9.9,8.5-11.4c8.2,0.7,10.3,7.3,11.8,14.5c4.7,22.4,9.4,44.7,14.2,67.1
			c1.5,7.1,5.2,12.4,12,14c6.9,1.7,12.1-2.1,16.2-7.7c2.4-3.4,4.5-7.1,6.4-10.8c16.7-34.5,23.9-71.7,28.3-110
			c1.3-11.7-0.6-23.8,3.8-35.3c11.5-29.7,15.2-60.1,4.4-91.1c-9.3-26.5-40.3-53-73.9-35.5c-7.2,3.8-15,5.5-23,5.4
			c-9.1-0.5-17.6-4.1-26.1-7.4c-18.6-7.1-35.4-3.8-50.2,10.9c-4,0-7.9-0.1-11.9,0.1c-22.7,0.8-42.3,10.4-57.1,28.2
			c-22.5,27.2-33.5,59.6-30,96.9c3.3,35.4,15.7,65.5,42.7,87.2c4,3.2,5,6.1,3,10.6c-2.8-1.4-5.6-2.8-8.3-4.2
			c-2.8-1.4-5.5-1.6-7.5,1.3c-1.9,2.9-2.8,6.2-0.6,9.3c1.3,1.9,3.3,3.3,4.9,4.9C1048.6,514.2,1040.3,534.4,1031.9,554.5z
			 M1296,493.6c-8.4,0-12.8,4.9-12.9,14.3c-0.1,8.5,5.4,14.8,12.8,14.8c7.3,0.1,14.2-7.4,14-15.4
			C1309.9,499.4,1304,493.6,1296,493.6z"/>
		<path class="st2" d="M723.8,300.1c5.8-7,11.6-13.9,17.4-20.9c2.3,3.9,1.6,8.3,1.6,12.6c-0.3,21.2-0.4,42.2,4.7,63
			c4.9,19.7,5.5,39.8,5.4,60.2c-0.3,52.4-0.1,104.8-0.1,157.3c0,2.8-0.2,5.5,0.2,8.2c0.6,4.1,2.7,6.1,6.6,3.7
			c6.7,0,6.5-5.2,6.5-10.3c0-60,0.1-120-0.1-180c0-9.5-1.4-18.9-6.3-27.2c-0.3-3.9-2-7.4-3-11.2c-1.4-5.3-5.8-9.9-3.5-16.2
			c3.6-1.2,5.6-3.8,6.4-7.8c17.9,0.4,14.5,1.2,14.9-16c0.1-3.4,0.1-6.8,0-10.1c-0.4-16.5,3.6-16.5-15-15.8c-1-7.7,1.6-16.4-5.3-22.4
			c32.8-29.6,70.3-40.4,112.4-32.5c2.8,0.5,5.5,1.5,8.4,0.7c0.1,0.7,0.2,1.4,0.3,2.1c-2.8,1.7-3.3,4.7-4,7.8
			c-4.4,19.4-7.1,38.7-4.9,58.8c4.1,38.7,17.5,71.7,45,97.6c6.7,6.3,15,9.9,21.4,16.3c-2.3,0.2-4.7,0.4-7,0.5
			c-10.1-0.1-20.3,0.2-30.5-0.4c-6.8-0.4-8.9,2.2-8.4,9.5c1.5,20.7,2.5,41.4,3.8,62.1c1.3,19.5,2.8,39,4,58.5c0.4,6,2.6,8.7,8.4,8.2
			c7.6-0.5,15.2-0.3,22.9-0.4c10.1,0,20.3-0.1,30.4-0.1C906.8,632,812.5,647.7,746.6,582c-11.6-11.5-20.9-25-29.8-38.8
			c-0.5-1.2-1-2.3-1.5-3.4c3.3-2.1,4.1-5.6,5.2-9.1c13.8-45,11.1-88.6-9.9-130.5c-2.3-4.6-2.6-8.4-0.7-12.9
			c11.2-26.4,15.4-54.3,13.7-83.2C723.6,302.6,723.7,301.4,723.8,300.1z M830.6,557.9c7,0.1,14,0.4,21,0.3
			c18.7-0.2,16.7,2.9,16.6-18.6c-1.6-31.4-3.4-62.9-4.9-94.3c-1.3-28.7-2.5-57.4-3.6-86.2c-0.3-7.9-0.9-15.5-9-18.9
			c3.7-12.2,1.3-24.8,1.4-37.2c0.1-4.6-3.6-5.9-7.3-5.8c-10.1,0.3-20.3,0.6-30.4,1c-3,0.1-5.1,1.6-5.1,4.8
			c0.2,12.4-2.1,24.9,1.4,37.2c-7.1,3.3-8.5,9.8-8.8,17.3c-0.6,18.3-1.4,36.6-2.3,54.9c-2,42.4-4,84.8-6.1,127.2
			c-0.1,2.4,0.1,4.9-0.2,7.3c-1.4,9.1,2.2,11.7,10.3,11.1C812.5,557.5,821.6,558,830.6,557.9z"/>
		<path class="st3" d="M218.4,412.7c-13-14.8-20.3-33.1-25.3-52.4c-14.1-55-7.6-106.9,25.1-152.6c47.8-66.8,131.3-65.1,176.5,3.9
			c34.1,52.1,37.7,109,15.8,168.1c-0.7,2-2.1,3.7-3,5.4c-3.3-0.2-4.6-3-6.4-5.4c-16-21.4-34.7-38.4-60.9-43.1
			c1.5-5.9,2.8-11.9,4.4-17.7c1.2-4.2-0.1-5.5-3.9-5.5c-24.3,0.1-48.6,0.1-72.9,0.1c-3.3,0-4.3,1.2-3.7,4.9
			c2.3,17.2,3.5,18.7,19.1,18.8c2.3,0,4.5,0.2,6.7,0.4c-1.1,1.1-2.3,2.1-3.5,3.2c-3.1,0.1-6.2,0.4-9.4,0.3c-5-0.4-6.6,2.2-5.8,7.1
			c-19.6,11.9-33.6,29.5-44.1,50.7C224.9,403.7,224.3,410.3,218.4,412.7z M261,289.2c0,2.4-0.1,4.9-0.1,7.3
			c0.1,12.9,0.1,12.9,12.1,12.9c19.1,0,38.3,0.1,57.5,0.1c18.6,0,18.6,0,17.2-20.8c2.8-14.2,6.6-28.3,8.2-42.7
			c2.9-27.4-16.9-45.1-41-37.6c-3.8,1.2-7.7,1.3-11.6,2c-3.8-0.9-7.8-1.5-11.6-2.8c-18.4-6-33.7,4.8-37.9,25.1
			C249.7,252.9,259.5,270.4,261,289.2z"/>
		<path class="st4" d="M406.8,390.6c12.7,17.9,18.2,38.9,20.4,60.5c4.1,40.9-2.4,79.7-26.2,113.2c-21.2,30-48.9,48-84.4,46.7
			c-33.9-1.3-60.2-19.3-79.6-49.2c-0.6-1.3-1.1-2.5-1.6-3.8c15.7-17.7,16.1-55.5,1.8-76.1c-6.6-9.4-13.8-17.8-25.4-19.5
			c-0.1-0.7-0.1-1.4-0.2-2.1c0.9-14.6,2.8-28.9,8.8-42.2c2.9,2.9,5.9,5.6,8.7,8.7c46.8,50.3,119.4,45.6,160.6-10.1
			C395.9,408.4,400.5,398.9,406.8,390.6z M354.1,532.3c-8.5-0.1-15,7.9-14.9,18.6c0,10.2,6.2,18.1,14.2,18.4
			c9.1,0.4,16.2-7.9,16.2-18.6C369.5,540.4,362.8,532.4,354.1,532.3z M288,573.9c0.1,5,1.4,9.6,6.7,9.6c5.5,0.2,8.1-4.4,7.9-9.6
			c-0.2-4.9-2.1-10.1-7.9-9.8C289.5,564.5,288.1,568.9,288,573.9z M303.6,505.5c0-5.2-1.6-9.2-6.8-9.8c-5.5-0.6-7.8,3.5-8.1,8.3
			c-0.4,4.8,1.4,9.4,6.7,9.7C300.5,514.2,303,510.8,303.6,505.5z"/>
		<path class="st3" d="M723.8,300.1c-0.1,1.3-0.1,2.5-0.1,3.8c-6,4.6-8.3,12.1-11.8,18.6c-8.6,15.5-12.8,32.9-18.7,49.7
			c-8.2-6-14.4-14.8-24-18.7c0.4-2.4,0.8-4.7,1.2-7.1c3.2-18.7,6.7-37.1,0.6-56c-7.9-24.6-29.2-35.4-51.3-25.4
			c-4.2,1.9-8.2,3.9-12.9,3.9c-0.1-7.9-0.1-15.9-0.3-23.9c-0.1-2.9,0.5-6.2-2.6-8.1c-7.8-5-15-11.2-23.6-14.3
			c-8.6-3.2-15.8-1.2-20.4,6.1c-4.1,6.5-4.2,13.2-0.1,19.7c4.5,7.2,11.8,9.3,20.3,6.3c6.8-2.5,12.6-6.9,18.6-10.9
			c3.9-2.7,5.7-1.7,5.6,3.3c-0.1,7.3-0.2,14.7-0.4,22.1c-5,0.4-9.4-2.1-13.8-4c-3.6-1.7-7.2-3.3-11.3-3.7c-19.4-2-37.6,14.5-41,37.9
			c-3.5,25.3,1.8,49.2,10.6,72.5c-11.9,14.4-22,29.9-27.5,48.5c-0.5-0.1-0.9-0.1-1.4-0.2c-42-57.3-41.8-139.5-9.5-195.4
			c28.9-49.9,81.2-73,128.7-54.8c36.9,14.1,60.1,43.7,74.4,82.2C719.2,267.3,722.3,283.5,723.8,300.1z"/>
		<path class="st4" d="M519.8,420c0.5,0.1,0.9,0.1,1.4,0.2c1,1.8,1.8,3.9,3.1,5.4c32.3,38.4,80.8,52.2,124.4,30.4
			c14.9-7.4,27.1-18.8,39.1-30.4c-0.6,40.8,8.6,78.8,27.4,114c0.5,1.2,1,2.3,1.5,3.4c-10.1,18.8-21.1,37-37.6,50.3
			c-44.3,35.8-103.4,27.1-137.4-20.1c-2.1-2.9-3.9-6-6.9-7.9c0-1.2,0-2.2-0.1-3.4c3.3-0.4,4.5-3.1,6-5.8c3.9-7.2,5.8-15.3,6.9-23.4
			c3.8-27.3-11.6-61.4-36.3-66.3l-0.5-0.4C512.7,450.4,516.4,435.2,519.8,420z M669.3,555.2c-0.1-10.5-6.6-19-14.7-19
			c-8.1,0-14.7,8.5-14.7,18.9c-0.1,11.1,6.7,19.8,15.1,19.5C663.1,574.3,669.4,565.7,669.3,555.2z M603,578.4
			c-0.4-5.1-2.1-9-7.4-9.2c-5.6-0.2-8.1,3.7-8,9.3c0,5.6,2.5,9.5,8.1,9.3C600.9,587.5,602.7,583.5,603,578.4z M596.5,499.5
			c-5,1.2-7.4,4.7-7.2,9.9c0.1,5.1,2.2,9.5,7.4,9.1c4.9-0.3,7.6-4.5,7.4-9.6C603.8,504.2,601.5,500.3,596.5,499.5z"/>
		<path class="st5" d="M875.1,237.5c-0.1-0.7-0.2-1.4-0.3-2.1c9.6-40.5,49.8-84,95.3-84.6c35.5-0.4,62.5,15.7,83.6,45.5
			c-7.7,12.2-19,20.7-27.1,32.5c-23.3,33.4-37.9,70.6-44.6,111.7c-0.2,1.4-1,2.9-1.5,4.2c-9.3-21.3-19.5-42.1-34.4-59.6
			C926.4,262,903.5,245,875.1,237.5z"/>
		<path class="st6" d="M406.8,390.6c-6.3,8.2-10.9,17.8-17.1,26.2c-41.3,55.7-113.8,60.5-160.6,10.1c-2.8-3-5.8-5.8-8.7-8.7
			c-0.6-1.9-1.3-3.7-1.9-5.5c5.9-2.3,6.5-8.9,8.9-13.8c10.5-21.3,24.5-38.8,44.1-50.7c1,3.1,2.4,6.3,3,9.5c0.7,4.2,2.8,5.4,6.5,5.4
			c15.8-0.1,31.7-0.1,47.5,0.1c3.8,0,5.6-1.6,6.3-5.6c0.6-3.3,1.6-6.4,2.6-9.6c1.6-5.1,0.3-7-5-6.9c-15.2,0.3-30.6-0.1-45.8-0.2
			c1.1-1.1,2.3-2.1,3.5-3.2c16.7-0.4,33.5-0.6,50.2-1c26.2,4.7,44.9,21.7,60.9,43.1c1.8,2.4,3,5.2,6.4,5.4
			C407.2,386.9,407,388.8,406.8,390.6z M331.1,366.7c-13.5,0-27,0-40.5,0c-15.1,0-14.9-0.1-10,15.1c1.4,4.4,3.6,5.4,7.4,5.4
			c7.9-0.2,15.9,0,23.8,0c16.7,0,16.7,0,19.6-17.9C331.5,368.6,331.3,368,331.1,366.7z M304.6,391.2L304.6,391.2
			c-5.3-0.1-10.7,0-16-0.1c-4.5-0.1-5,2.1-3.9,6.3c2.1,8,6.7,12.8,14.3,13c9.1,0.4,19.1,2.5,24.2-9.4c3.6-8.4,2.8-9.7-5.9-9.8
			C313,391.2,308.8,391.2,304.6,391.2z"/>
		<path class="st7" d="M1340.7,315.2c-3.8-10.4-7.4-21.1-11.5-31.4c-19.8-50.9-51.3-90.3-97.3-115.3c-1.2-0.6-2.3-1.8-3.4-2.7
			c11.2-14.6,26.4-20.8,43.2-22c37.8-2.6,62.9,18.6,78.4,53.6c15.6,35.5,13.8,71.7-1.9,107C1346.4,308.5,1344.7,312.8,1340.7,315.2z
			"/>
		<path class="st7" d="M235.4,558.1c0.6,1.3,1.1,2.5,1.6,3.8c-1.5,0.7-3.4,1.1-4.5,2.2c-21.3,24.6-59,18.9-73.6-20.3
			c-9.9-26.7-0.6-62.2,20.6-76.9c10-6.9,20.9-6.6,31.9-6.5c0.1,0.7,0.1,1.4,0.2,2.1c0.1,13-0.9,26.2,1.7,39.1
			C217.6,522,222.6,541.9,235.4,558.1z"/>
		<path class="st7" d="M534.9,561.9c0,1.2,0,2.2,0.1,3.4c-18.9,25.3-51.7,23.8-68.5-3.1c-18.5-29.4-12.5-72.3,12.4-89.4
			c9.9-6.7,20.4-10.7,32.3-6.8l0.5,0.4c-1.3,10.7,0,21.3,1.3,31.9C515.7,521.2,521.7,543,534.9,561.9z"/>
		<path class="st8" d="M1057,494c-1.6-1.6-3.5-3-4.9-4.9c-2.2-3.1-1.3-6.4,0.6-9.3c2-2.9,4.7-2.8,7.5-1.3c2.8,1.4,5.5,2.8,8.3,4.2
			c3.5,4,4.5,0.3,5.8-2.2c1.6-3,1.6-7,4.4-9.4c11.4,7.1,24,10.4,36.7,9.1c27.2-2.8,49-16.9,63.1-42.5c19.5-35.4,22.3-73,7.7-111.1
			c-8.1-21-20.6-38.8-40.5-48.6c0.6-2.9,1.1-5.7,1.7-8.7c5.2,0.9,9.1,4.6,13.1,7.9c17.7,14.4,28.7,33.9,36.2,56.1
			c1.1,5,2.2,10,3.2,15c4.3,21.3,2.1,42.2-1.8,63.2c-1,2.5-2.1,4.9-3,7.4c-7.2,20.4-17.9,38.1-34,51.6
			c-10.3,8.6-22.2,13.1-34.2,17.5c-14,2.1-27.6,1.1-41-4.1c-2.3-0.9-4.3-1.3-5.6,1.9c-1.3,3,0,4.6,2.2,5.9c2.3,1.3,4.5,2.6,6.7,4
			c3.8,2.5,4.4,6.3,3,10.4c-1.3,3.8-4.4,4.6-7.7,3.5c-2.3-0.8-4.3-1.4-5.5,1.8c-8.2,22.5-19,43.8-25.7,66.9c-4.7,6.6-6.2,15-10,22.2
			c-1.7,3.3,0.1,5.7,1.1,8.5c1.1,3.2,1.5,6.7-1.2,9.4c-2.8,2.8-5.7,1.8-8.6,0.1c-6.5-3.8-12.9-7.6-19.4-11.3c-3.5-2-6.3-4.3-5.6-9.1
			c0.7-5.3,4-7,8.5-7c10.7,9.3,10.9,9.2,15.9-3.9c9.7-25.7,19.6-51.4,29.4-77.2C1067.5,499.3,1067.5,499.3,1057,494z"/>
		<path class="st2" d="M980.3,427.5c2.6,16.2,6,32.1,10.2,48c-6.1,22.4-12.3,44.7-24,64.8c-3,5.1-5.4,10.7-9.8,14.7
			c-1-12.2,0.8-24.4,1.5-36.6c1.3-21.6,1.8-43.4,4-64.9c0.9-8.8-0.6-17.8,2.7-26.3C970,427.3,975.2,427.4,980.3,427.5z"/>
		<path class="st8" d="M759.6,584.1c-3.9,2.4-6,0.4-6.6-3.7c-0.4-2.7-0.2-5.5-0.2-8.2c0-52.4-0.2-104.8,0.1-157.3
			c0.1-20.3-0.5-40.5-5.4-60.2c-5.2-20.7-5-41.8-4.7-63c0.1-4.2,0.8-8.7-1.6-12.6c3-4.8,4.1-11.9,11.4-11.9c0.2,24,0.4,48,0.6,72
			c-2.3,6.3,2.1,10.9,3.5,16.2c1,3.8,2.7,7.2,3,11.2C759.6,439.1,759.6,511.6,759.6,584.1z"/>
		<path class="st9" d="M771.3,209.4c0,13.9-8.3,24.5-19.2,24.6c-10.9,0.2-20-11.4-19.8-25.2c0.2-13.4,9.2-24.5,19.8-24.4
			C762.6,184.6,771.3,195.9,771.3,209.4z"/>
		<path class="st3" d="M99.3,215.5c0.1-13.9,8.2-24.2,19.4-24.2c11.1,0,19.5,10.6,19.4,24.5c-0.1,13.8-8.5,24.3-19.6,24.2
			C107.5,239.9,99.3,229.5,99.3,215.5z"/>
		<path class="st10" d="M1057,494c10.4,5.3,10.4,5.3,6.2,16.3c-9.8,25.7-19.7,51.4-29.4,77.2c-5,13.1-5.2,13.2-15.9,3.9
			c4.6-12.3,9.3-24.6,13.9-36.9C1040.3,534.4,1048.6,514.2,1057,494z"/>
		<path class="st11" d="M964.9,427.2c-3.2,8.4-1.8,17.5-2.7,26.3c-2.2,21.5-2.7,43.2-4,64.9c-0.7,12.1-2.6,24.3-1.5,36.6
			c-0.1,0.4-0.2,0.8-0.4,1.2c-10.1,0-20.3,0.1-30.4,0.1c0-4.2,0-8.4,0-12.6c5.6-0.2,11.3-0.5,16.9-0.5c5.1,0,8.1-2.4,8.4-7.9
			c0.6-9.5,1.1-18.8,1.6-28.3c1.7-9.7,2.4-19.6,1.9-29.5c1.1-13,1.9-26.2,3.2-39.2c0.9-8.9-1.6-12.4-10.1-12.6
			c-7.4-0.2-14.7-0.2-22-0.2c-0.1-2.2-0.1-4.6-0.1-6.8c2.3-0.2,4.7-0.4,7-0.5c8.2,0,16.3,0.4,24.5,0
			C963.5,417.7,965.9,420.6,964.9,427.2z"/>
		<path class="st4" d="M753.2,339.3c-0.2-24-0.4-48-0.6-72c0.5-0.1,1-0.2,1.5-0.2c6.9,6.1,4.3,14.7,5.3,22.4
			c0,13.9,0.1,27.9,0.1,41.9C758.8,335.4,756.8,338.1,753.2,339.3z"/>
		<path class="st9" d="M831,179c-0.4,6.6-2.7,12-9.6,12.9c-5.8,0.7-10.8-5.4-10.9-12.6c-0.1-7,5.1-13.8,10.5-13.1
			C827.7,166.9,830.5,172,831,179z"/>
		<path class="st3" d="M128,336.4c0.1-5.8,2.6-11.1,9.4-12.1c5.5-0.8,11.2,6.1,10.7,12.8c-0.5,6.6-3.3,12-10.1,12.7
			C132.8,350.5,128.2,344.4,128,336.4z"/>
		<path class="st9" d="M1287.1,621.2c-7.1-1.1-9.4-6.3-9-13.1c0.4-6.6,3.5-11.5,9.9-11.1c7,0.4,9.4,6.2,9,12.9
			C1296.7,616.7,1293.6,620.9,1287.1,621.2z"/>
		<path class="st12" d="M1198,411.7c3.8-21,6-42,1.8-63.2c-1-5-2.1-10-3.2-15c2-2.6,1.6-5.7,1.6-8.8c0-22.8,0-45.6-0.1-68.4
			c8.1,0.1,15.9-1.7,23-5.4c33.6-17.5,64.6,9,73.9,35.5c10.8,31,7.2,61.3-4.4,91.1c-4.4,11.3-2.4,23.5-3.8,35.3
			c-4.4,38.2-11.6,75.5-28.3,110c-1.8,3.8-4,7.4-6.4,10.8c-4,5.6-9.1,9.4-16.2,7.7c-6.8-1.7-10.4-6.9-12-14
			c-4.7-22.4-9.5-44.7-14.2-67.1c-1.5-7.2-3.6-13.8-11.8-14.5C1198,434.3,1198,422.9,1198,411.7z M1267.7,315.7
			c0-11.5-7.1-20.7-16.2-21c-9.4-0.3-17,9.2-16.9,21.1c0.1,11.3,7.4,20.9,16.2,21.2C1260,337.2,1267.7,327.5,1267.7,315.7z"/>
		<path class="st9" d="M964.9,427.2c1-6.6-1.3-9.5-7.8-9.2c-8.2,0.4-16.3,0-24.5,0c-6.5-6.4-14.7-10-21.4-16.3
			c-27.4-26-40.8-59-45-97.6c-2.2-20.2,0.5-39.6,4.9-58.8c0.7-3,1.1-6.1,4-7.8c28.4,7.5,51.4,24.5,71,47.5
			c15,17.5,25.1,38.3,34.4,59.6c-2.3,27.6-2.9,55.2-0.1,82.9C975.2,427.4,970,427.3,964.9,427.2z"/>
		<path class="st10" d="M1147.4,269.4c-0.6,2.9-1.1,5.7-1.7,8.7c-3.2,4.5-3.6,10.1-5.6,15c-23.3-11-45.7-9.6-65.5,7.9
			c-45.9,40.4-40.6,120.9,9.6,154.2c-2.2,5.2-4.7,10.2-5.5,15.9c-2.8,2.4-2.8,6.3-4.4,9.4c-1.3,2.5-2.3,6.3-5.8,2.2
			c2-4.6,0.9-7.5-3-10.6c-26.9-21.7-39.3-51.8-42.7-87.2c-3.5-37.2,7.4-69.7,30-96.9c14.7-17.9,34.5-27.4,57.1-28.2
			c4-0.2,7.9-0.1,11.9-0.1C1130.9,261.3,1140.2,262.1,1147.4,269.4z"/>
		<path class="st13" d="M1198,411.7c0,11.3,0,22.6,0,33.8c-5.5,1.5-7.4,6-8.5,11.4c-4.4,21.2-8.9,42.4-13.4,63.6
			c-0.7,3.3-1.5,6.6-2.8,9.6c-5.4,13.6-18.9,15.6-26.8,3.6c-9-13.8-15.7-29-19.8-45.5c12.1-4.4,24-8.9,34.2-17.5
			c16.2-13.6,26.9-31.2,34-51.6C1195.9,416.5,1197,414.1,1198,411.7z"/>
		<path class="st13" d="M1147.4,269.4c-7.2-7.3-16.5-8.1-25.5-9.7c14.7-14.6,31.5-17.9,50.2-10.9c8.5,3.2,16.9,6.9,26.1,7.4
			c0,22.8,0.1,45.6,0.1,68.4c0,3,0.4,6.2-1.6,8.8c-7.4-22.1-18.4-41.8-36.2-56.1C1156.5,274.1,1152.6,270.3,1147.4,269.4z"/>
		<path class="st9" d="M1296,493.6c8.1,0,13.9,5.8,14,13.8c0.1,7.9-6.8,15.4-14,15.4c-7.4-0.1-12.9-6.3-12.8-14.8
			C1283.1,498.6,1287.6,493.6,1296,493.6z"/>
		<path class="st9" d="M715.3,539.6c-18.8-35.3-28.1-73.3-27.4-114c-0.6-18,3.3-35.6,5.2-53.4c5.9-16.8,10.1-34.2,18.7-49.7
			c3.5-6.4,5.8-13.9,11.8-18.6c1.7,28.9-2.5,56.8-13.7,83.2c-1.9,4.6-1.6,8.4,0.7,12.9c20.9,41.9,23.5,85.5,9.9,130.5
			C719.4,534,718.5,537.7,715.3,539.6z"/>
		<path class="st13" d="M793.5,539.8c2.1-42.4,4.1-84.8,6.1-127.2c0.9-18.3,1.6-36.6,2.3-54.9c0.3-7.4,1.7-14,8.8-17.3
			c6.7,0.2,13.3,0.4,20.1,0.4c0,28.2-0.1,56.3-0.1,84.6c-17.4,3-27.8,16.7-27.9,36.4c-0.1,19.6,10.3,33.2,27.8,36.5
			c0,13.8,0,27.6,0,41.4C818.3,539.8,805.9,539.8,793.5,539.8z"/>
		<path class="st11" d="M830.7,539.7c0-13.8,0-27.6,0-41.4c5.2-1.3,10.5-1.8,15.2-5.4c10.8-8.2,16.2-24.5,13-40.2
			c-3.3-15.8-12.9-25.2-28.1-27.4c0-28.2,0.1-56.3,0.1-84.6c6.7-0.2,13.3-0.4,19.9-0.5c8.2,3.4,8.7,11.1,9,18.9
			c1.1,28.8,2.3,57.4,3.6,86.2c1.5,31.4,3.3,62.9,4.9,94.3c-12.5,0.2-25.1,0.4-37.6,0.6L830.7,539.7z"/>
		<path class="st4" d="M759.6,584.1c0.1-72.5,0.1-145,0.1-217.5c4.8,8.3,6.2,17.8,6.3,27.2c0.2,60,0.1,120,0.1,180
			C766.2,578.9,766.3,584.1,759.6,584.1z"/>
		<path class="st13" d="M925.7,418.6c0.1,2.2,0.1,4.6,0.1,6.8h-0.1c-8.2,0.1-16.4,0.1-24.5,0.2c-6.8,0.1-9.5,3.8-8.8,11.2
			c1.3,13.6,2.2,27.2,3.3,40.9c0.6,10.3,1.1,20.6,1.6,30.9c-1.3,9.3,1.8,18.1,1.9,27.3c0.1,5.1,3.4,7.4,8,7.5
			c6.2,0.1,12.5,0.3,18.7,0.4c0,4.2,0,8.4,0,12.6c-7.7,0.1-15.2-0.2-22.9,0.4c-5.9,0.4-8.1-2.3-8.4-8.2c-1.2-19.5-2.8-39-4-58.5
			c-1.3-20.7-2.3-41.5-3.8-62.1c-0.5-7.2,1.6-9.9,8.4-9.5C905.3,418.8,915.5,418.5,925.7,418.6z"/>
		<path class="st8" d="M850.7,340.3c-6.7,0.2-13.3,0.4-19.9,0.5c-6.7-0.2-13.3-0.4-20.1-0.4c-3.5-12.2-1.2-24.8-1.4-37.2
			c-0.1-3.2,2.1-4.7,5.1-4.8c10.1-0.4,20.3-0.7,30.4-1c3.7-0.1,7.3,1.3,7.3,5.8C851.9,315.5,854.3,328.1,850.7,340.3z M822.2,333.3
			c1.7-8.5,1.9-17-0.1-25.4C820.4,316.3,820.2,324.8,822.2,333.3z M815.8,333.4c1.4-8.6,2-17.1-0.4-25.5
			C814,316.3,813.3,324.8,815.8,333.4z M839.2,307.7c-1.7,8.7-2.2,17.2,0.1,25.8C841.3,325,841.4,316.4,839.2,307.7z M845.9,307.7
			c-1.9,8.5-2.1,16.9,0.1,25.4C848,324.6,848.3,316.1,845.9,307.7z M833.9,308.1c-1.4,8.5-2.1,17,0.4,25.4
			C836,325,836.5,316.6,833.9,308.1z M827.3,333.3c2-8.3,2-16.7,0.3-25.1C825.1,316.5,825.8,324.9,827.3,333.3z"/>
		<path class="st0" d="M793.5,539.8c12.4,0,24.7-0.1,37.1-0.1l-0.1,0.6c0,5.9,0.1,11.8,0.1,17.7c-9,0-18.1-0.4-27,0.3
			c-8,0.6-11.7-2-10.3-11.1C793.7,544.7,793.5,542.2,793.5,539.8z"/>
		<path class="st7" d="M830.6,557.9c0-5.9-0.1-11.8-0.1-17.7c12.5-0.2,25.1-0.4,37.6-0.6c0.1,21.4,2.1,18.4-16.6,18.6
			C844.6,558.3,837.6,558.1,830.6,557.9z"/>
		<path class="st13" d="M759.5,331.5c0-13.9-0.1-27.9-0.1-41.9c18.6-0.8,14.5-0.7,15,15.8c0.1,3.4,0.1,6.8,0,10.1
			C774,332.6,777.4,331.9,759.5,331.5z"/>
		<path class="st12" d="M303.3,210.6c3.9-0.6,7.9-0.8,11.6-2c24-7.5,43.9,10.1,41,37.6c-1.6,14.4-5.4,28.5-8.2,42.7
			c-14.7-0.2-29.6-0.4-44.3-0.4C303.4,262.4,303.3,236.5,303.3,210.6z"/>
		<path class="st13" d="M303.3,210.6c0.1,25.9,0.1,51.9,0.1,77.8c-14.2,0.4-28.4,0.6-42.5,1c-1.5-18.9-11.3-36.3-7.1-56.4
			c4.2-20.3,19.6-31,37.9-25.1C295.6,209,299.5,209.7,303.3,210.6z"/>
		<path class="st8" d="M340.2,336.6c-16.7,0.4-33.5,0.6-50.2,1c-2.3-0.1-4.5-0.3-6.7-0.4c-15.5-0.2-16.8-1.6-19.1-18.8
			c-0.5-3.8,0.4-4.9,3.7-4.9c24.3,0,48.6,0,72.9-0.1c3.8,0,5.1,1.3,3.9,5.5C343,324.7,341.6,330.7,340.2,336.6z"/>
		<path class="st8" d="M261,289.2c14.2-0.4,28.4-0.6,42.5-1c14.7,0.2,29.6,0.4,44.3,0.4c1.4,20.8,1.4,20.9-17.2,20.8
			c-19.1,0-38.3-0.1-57.5-0.1c-12,0-12,0-12.1-12.9C260.9,294.2,260.9,291.7,261,289.2z"/>
		<path class="st8" d="M286.5,340.8c15.2,0.1,30.6,0.4,45.8,0.2c5.2-0.1,6.5,1.8,5,6.9c-1,3.2-2.1,6.3-2.6,9.6
			c-0.6,4-2.5,5.6-6.3,5.6c-15.8-0.2-31.7-0.2-47.5-0.1c-3.7,0-5.7-1.2-6.5-5.4c-0.6-3.2-2-6.3-3-9.5c-0.8-5,0.8-7.6,5.8-7.1
			C280.3,341.2,283.4,340.9,286.5,340.8z"/>
		<path class="st2" d="M235.4,558.1c-12.8-16.3-17.9-36.2-22-56.4c-2.6-12.9-1.6-26.1-1.7-39.1c11.6,1.7,18.9,10.1,25.4,19.5
			C251.5,502.6,251.1,540.5,235.4,558.1z"/>
		<path class="st3" d="M354.1,532.3c8.6,0.1,15.4,8.1,15.5,18.4c0.1,10.7-7.1,18.8-16.2,18.6c-8-0.3-14.2-8.2-14.2-18.4
			C339.1,540.3,345.6,532.2,354.1,532.3z"/>
		<path class="st3" d="M288,573.9c0-5,1.4-9.5,6.7-9.7c5.7-0.3,7.7,4.8,7.9,9.8c0.2,5.3-2.3,9.8-7.9,9.6
			C289.5,583.5,288.1,578.9,288,573.9z"/>
		<path class="st3" d="M303.6,505.5c-0.6,5.3-3,8.7-8.2,8.3c-5.4-0.4-7.1-4.9-6.7-9.7c0.4-4.8,2.6-9,8.1-8.3
			C301.9,496.3,303.6,500.3,303.6,505.5z"/>
		<path class="st6" d="M693,372.2c-2,17.8-5.8,35.4-5.2,53.4c-12.1,11.7-24.2,23-39.1,30.4c-43.6,21.7-92.2,7.9-124.4-30.4
			c-1.3-1.5-2.1-3.7-3.1-5.4c5.5-18.6,15.6-34.2,27.5-48.5c12.2,23.9,30.2,37.4,56.1,37c21,0.7,38.1-7.1,50.8-26c6-9,9-19.4,13.5-29
			C678.6,357.4,684.9,366.2,693,372.2z"/>
		<path class="st14" d="M669.1,353.5c-4.5,9.7-7.4,20.1-13.5,29c-12.7,18.8-29.8,26.6-50.8,26c-0.1-43.9-0.1-88-0.1-131.9
			c3.1-1.8,1.3-5.2,2.2-7.7c4.6-0.1,8.7-2.1,12.9-3.9c22-9.9,43.3,0.7,51.3,25.4c6.1,18.8,2.5,37.4-0.6,56
			C669.9,348.8,669.5,351.2,669.1,353.5z"/>
		<path class="st15" d="M604.6,276.7c0.1,43.9,0.1,88,0.1,131.9c-25.9,0.5-43.9-12.9-56.1-37c-8.8-23.2-14.2-47.2-10.6-72.5
			c3.3-23.4,21.5-39.8,41-37.9c4,0.4,7.7,2.1,11.3,3.7c4.4,2.1,8.7,4.5,13.8,4C604.2,271.6,604.4,274.1,604.6,276.7z M590.8,300.9
			c0.1-15.1-9.5-27.4-21.1-27.2c-11.2,0.2-20.7,12.3-21,26.7c-0.3,14.9,9.1,27.3,20.8,27.5C581.5,328,590.7,316.4,590.8,300.9z"/>
		<path class="st8" d="M604.6,276.7c-0.2-2.5-0.4-5.1-0.6-7.6c0.1-7.3,0.2-14.7,0.4-22.1c0.1-5-1.6-6-5.6-3.3
			c-6,4.1-11.8,8.5-18.6,10.9c-8.6,3.1-15.7,1-20.3-6.3c-4.1-6.5-4-13.3,0.1-19.7c4.6-7.2,11.7-9.2,20.4-6.1
			c8.7,3.2,15.9,9.4,23.6,14.3c3,2,2.6,5.2,2.6,8.1c0.1,7.9,0.2,15.9,0.3,23.9C605.9,271.5,607.7,274.9,604.6,276.7z"/>
		<path class="st2" d="M534.9,561.9c-13-18.8-19.1-40.6-22-63.6c-1.3-10.5-2.7-21.2-1.3-31.9c24.7,4.7,40.1,38.8,36.3,66.3
			c-1.1,8.1-3,16.2-6.9,23.4C539.4,558.7,538.1,561.4,534.9,561.9z"/>
		<path class="st9" d="M669.3,555.2c0.1,10.5-6.2,19.1-14.3,19.5c-8.4,0.3-15.2-8.5-15.1-19.5c0.1-10.5,6.6-18.9,14.7-18.9
			C662.7,536.1,669.3,544.6,669.3,555.2z"/>
		<path class="st9" d="M603,578.4c-0.3,5.1-2.1,9.1-7.3,9.3c-5.6,0.3-8.1-3.6-8.1-9.3c0-5.6,2.5-9.5,8-9.3
			C600.9,569.4,602.7,573.3,603,578.4z"/>
		<path class="st9" d="M596.5,499.5c5,0.7,7.4,4.6,7.6,9.5c0.2,5.1-2.5,9.3-7.4,9.6c-5.2,0.4-7.4-4-7.4-9.1
			C589.1,504.3,591.4,500.7,596.5,499.5z"/>
		<path class="st8" d="M331.1,366.7c0.1,1.3,0.4,2,0.3,2.5c-3,17.9-3,17.9-19.6,17.9c-7.9,0-15.9-0.2-23.8,0c-3.8,0.1-6-1-7.4-5.4
			c-4.9-15.2-5-15.1,10-15.1C304.1,366.7,317.7,366.7,331.1,366.7z"/>
		<path class="st8" d="M304.6,391.2c4.2,0,8.4,0,12.6,0c8.7,0.1,9.5,1.4,5.9,9.8c-5.1,12-15.1,9.7-24.2,9.4
			c-7.7-0.3-12.2-5.1-14.3-13c-1.1-4.2-0.6-6.4,3.9-6.3c5.3,0.1,10.7,0,16,0C304.6,391.1,304.6,391.2,304.6,391.2z"/>
		<path class="st4" d="M1078.8,471.1c0.9-5.7,3.3-10.8,5.5-15.9c43.1,21.1,76.4-8.2,89.2-40.3c15.9-39.8,8.5-94.7-33.3-121.8
			c2-4.9,2.4-10.6,5.6-15c20,9.8,32.5,27.5,40.5,48.6c14.7,38.1,11.8,75.6-7.7,111.1c-14.1,25.5-35.9,39.7-63.1,42.5
			C1102.7,481.4,1090.1,478.1,1078.8,471.1z"/>
		<path class="st4" d="M897.3,508.5c-0.6-10.3-1.1-20.6-1.6-30.9c10.1-0.2,20.2-0.4,30.3-0.6c9.6,0.2,19.3,0.3,28.9,0.4
			c0.4,9.9-0.2,19.7-1.9,29.5c-10.3,6.5-21.1,10.3-33.4,9.1C911.4,515.3,905.2,509,897.3,508.5z"/>
		<path class="st8" d="M897.3,508.5c7.9,0.5,14.1,6.7,22.2,7.5c12.3,1.2,23.1-2.6,33.4-9.1c-0.6,9.5-1,18.9-1.6,28.3
			c-0.4,5.6-3.3,7.9-8.4,7.9c-5.6,0-11.3,0.4-16.9,0.5c-6.2-0.1-12.5-0.3-18.7-0.4c-4.6-0.1-7.9-2.4-8-7.5
			C899.1,526.7,896,517.8,897.3,508.5z"/>
		<path class="st6" d="M954.8,477.4c-9.6-0.2-19.3-0.3-28.9-0.4c-0.1-17.2-0.1-34.4-0.3-51.6h0.1c7.4,0.1,14.7,0,22,0.2
			c8.6,0.2,11,3.7,10.1,12.6C956.7,451.2,955.8,464.4,954.8,477.4z"/>
		<path class="st14" d="M1267.7,315.7c0,11.8-7.7,21.5-16.9,21.3c-8.9-0.3-16.2-9.8-16.2-21.2c-0.1-11.9,7.6-21.3,16.9-21.1
			C1260.6,295,1267.7,304.2,1267.7,315.7z"/>
		<path class="st13" d="M1140.1,293.1c41.8,27.1,49.3,82,33.3,121.8c-12.8,32-46.1,61.3-89.2,40.3c-50.3-33.3-55.5-113.8-9.6-154.2
			C1094.4,283.4,1116.9,282.1,1140.1,293.1z M1145.6,377.5c-0.1-6.1,0.5-12.3-0.2-18.3c-3.1-26-25.4-41.7-45.2-32.1
			s-27.7,40-16.5,62.9c10.6,21.6,28.9,25.8,50,11.4c3.9,4.5,7.9,9.3,14.3,6.4c6.1-2.7,8.9-8.6,8.6-15.3
			C1156.5,385,1153,379.3,1145.6,377.5z M1105.8,436c0.3-7.8-5.2-15.4-11.5-15.9c-6.6-0.4-12.1,6.1-12.2,14.6
			c-0.2,8.7,4.6,15.6,11.1,16.1C1099.1,451.1,1105.5,443.6,1105.8,436z M1083.9,312.9c0.3,5.3,2.3,9.6,7.9,9.5
			c5.5-0.1,7.8-4.3,7.8-9.8c0-5.9-2.3-10.4-8.4-10.1C1085.7,302.7,1083.9,307.3,1083.9,312.9z M1053.4,381.1c0.2,5,2,8.9,6.7,9
			c4.7,0.2,6.9-3.7,7-8.6c0.1-5-2.2-8.7-6.7-8.8C1055.6,372.6,1053.7,376.5,1053.4,381.1z M1163.7,351.8c3.4-0.4,5-2.8,5-6
			c0.1-3.8-1.8-6.6-5.5-6.4c-3.3,0.1-4.6,3-4.5,6.3C1158.9,349.1,1160.4,351.4,1163.7,351.8z"/>
		<path class="st8" d="M830.7,425.4c15.2,2.1,24.8,11.6,28.1,27.4c3.3,15.7-2.1,32-13,40.2c-4.7,3.6-9.9,4.1-15.2,5.4
			c-17.5-3.2-27.9-16.8-27.8-36.5C802.9,442.1,813.3,428.5,830.7,425.4z M830.8,444c-10.6-2.5-15.2,1.8-13.7,13.1
			c0.6,4.8,1.3,9.7,2.5,14.4c1.1,4.6,0.9,11.7,5.8,12c4.4,0.3,2.6-7,4.4-10.5c0.3-0.5,0.7-1,1.1-1.4c0.9,2.2,1.9,4.4,2.7,6.6
			c0.8,2.2,0.8,5.5,3.5,5.6c3.1,0.1,3.8-3.4,4.5-5.9c1.6-6.2,2.6-12.5,3.8-18.8C847.9,445.7,842.9,440.5,830.8,444z"/>
		<path class="st12" d="M925.7,425.4c0.1,17.2,0.1,34.4,0.3,51.6c-10.1,0.2-20.2,0.4-30.3,0.6c-1.1-13.7-2-27.2-3.3-40.9
			c-0.7-7.4,2-11.1,8.8-11.2C909.3,425.5,917.5,425.4,925.7,425.4z"/>
		<path class="st4" d="M822.2,333.3c-2.1-8.5-1.8-17-0.1-25.4C824.1,316.3,823.9,324.8,822.2,333.3z"/>
		<path class="st4" d="M815.8,333.4c-2.5-8.5-1.7-17.1-0.4-25.5C817.8,316.2,817.1,324.8,815.8,333.4z"/>
		<path class="st4" d="M839.2,307.7c2.1,8.6,2.1,17.1,0.1,25.8C837,325,837.5,316.4,839.2,307.7z"/>
		<path class="st4" d="M845.9,307.7c2.4,8.5,2,16.9,0.1,25.4C843.8,324.6,844,316.1,845.9,307.7z"/>
		<path class="st4" d="M833.9,308.1c2.6,8.5,2.1,16.9,0.4,25.4C831.7,325.1,832.4,316.6,833.9,308.1z"/>
		<path class="st4" d="M827.3,333.3c-1.5-8.4-2.2-16.8,0.3-25.1C829.3,316.6,829.3,325,827.3,333.3z"/>
		<path class="st10" d="M590.8,300.9c-0.1,15.4-9.2,27.1-21.2,26.9c-11.7-0.2-21.1-12.6-20.8-27.5c0.2-14.4,9.8-26.5,21-26.7
			C581.3,273.5,590.9,285.9,590.8,300.9z"/>
		<path class="st14" d="M1133.8,401.4c-21.1,14.3-39.6,10.1-50-11.4c-11.2-22.9-3.2-53.2,16.5-62.9c19.7-9.6,42,6.1,45.2,32.1
			c0.7,6,0.2,12.2,0.2,18.3C1134.1,382,1133,384.1,1133.8,401.4z"/>
		<path class="st2" d="M1133.8,401.4c-0.8-17.2,0.2-19.4,11.8-23.9c7.4,1.8,10.8,7.5,11.1,15c0.3,6.7-2.5,12.6-8.6,15.3
			C1141.7,410.6,1137.7,405.9,1133.8,401.4z"/>
		<path class="st2" d="M1105.8,436c-0.2,7.7-6.6,15.1-12.6,14.7c-6.5-0.4-11.3-7.4-11.1-16.1c0.2-8.6,5.7-15.1,12.2-14.6
			C1100.5,420.6,1106,428.2,1105.8,436z"/>
		<path class="st2" d="M1083.9,312.9c0.1-5.6,1.8-10.2,7.4-10.4c6-0.3,8.4,4.2,8.4,10.1c0,5.5-2.3,9.7-7.8,9.8
			C1086.2,322.4,1084.2,318.2,1083.9,312.9z"/>
		<path class="st2" d="M1053.4,381.1c0.4-4.6,2.2-8.6,7-8.4c4.5,0.3,6.9,3.8,6.7,8.8c-0.1,4.8-2.3,8.7-7,8.6
			C1055.4,390.1,1053.6,386.1,1053.4,381.1z"/>
		<path class="st9" d="M1163.7,351.8c-3.3-0.4-4.8-2.8-4.9-6.2c-0.1-3.4,1.1-6.3,4.5-6.3c3.7-0.1,5.5,2.8,5.5,6.4
			C1168.6,349.1,1167.1,351.5,1163.7,351.8z"/>
		<path class="st1" d="M830.8,444c12.1-3.6,17.1,1.7,14.5,15.1c-1.2,6.3-2.3,12.6-3.8,18.8c-0.6,2.5-1.3,6-4.5,5.9
			c-2.8-0.1-2.7-3.4-3.5-5.6c-0.8-2.2-1.8-4.4-2.7-6.6C830.8,462.4,830.8,453.2,830.8,444z"/>
		<path class="st12" d="M830.8,444c0,9.2,0,18.3,0,27.5c-0.4,0.4-0.8,0.9-1.1,1.4c-1.7,3.6,0,10.8-4.4,10.5c-4.8-0.3-4.7-7.5-5.8-12
			c-1.1-4.7-1.8-9.6-2.5-14.4C815.6,445.8,820.2,441.5,830.8,444z"/>
	</g>
</g>
<rect x="4" y="127" class="st16" width="1361" height="517.9"/>
</svg>
