<?xml version="1.0" encoding="utf-8"?>
<!-- Generator: Adobe Illustrator 24.0.2, SVG Export Plug-In . SVG Version: 6.00 Build 0)  -->
<svg version="1.1" id="Capa_1" xmlns="http://www.w3.org/2000/svg" xmlns:xlink="http://www.w3.org/1999/xlink" x="0px" y="0px"
	 viewBox="0 0 1920 1080" style="enable-background:new 0 0 1920 1080;" xml:space="preserve">
<style type="text/css">
	.st0{fill:#15C3D6;}
	.st1{fill:#9FCCFA;}
	.st2{fill:#82E9CD;}
	.st3{fill:#91E9F0;}
	.st4{fill:#68C8EC;}
	.st5{fill:#60DAE6;}
	.st6{fill:#AEEBF8;}
	.st7{fill:#56DAD0;}
	.st8{fill:#3397D8;}
	.st9{fill:#9DF1D3;}
	.st10{fill:#D4D5D6;}
	.st11{fill:#B2DAEF;}
	.st12{fill:#CCFAFE;}
	.st13{fill:#F1FDFC;}
	.st14{fill:#BF1515;}
	.st15{fill:#F33030;}
	.st16{fill:none;}
</style>
<g>
	<g>
		<path class="st0" d="M958.6,829.8c-315.8,0-631.7,0-947.5,0.2C2.1,830,0,828.3,0,820.6c0.3-187.3,0.3-374.6,0-561.9
			c0-6.7,1-8.6,9.6-8.6c633.7,0.2,1267.4,0.2,1901.1,0.1c7.4,0,9.2,1.4,9.2,7.9c-0.2,188-0.3,376,0.1,564c0,7.8-3,8-10.3,8
			C1592.7,829.8,1275.6,829.8,958.6,829.8z M1056.1,407.1c-10.3,0-11.8,7.9-16.1,13.3c-8.2,7.8-16.4,15.6-24.6,23.4
			c-2.1-18.6-6.5-36.7-14.6-54c-20.2-43.1-52.9-76.1-105-92c-67-20.4-140.9,5.5-181.6,61.4c-45.6,62.6-45.9,154.6,13.4,218.8
			c-4.8,17.1-9.8,34.1-12.4,51.5c-16.7-4.4-31.6,0.1-45.5,7.6c-35.2,19.1-43.5,67.2-17.5,100.1c23.8,30.1,70.2,31.8,96.7,3.5
			c4.3,2.2,6.8,5.7,9.8,8.9c48,53,131.3,62.6,193.8,22.5c23.2-14.9,38.7-35.2,53-56.3c12.5,15.6,25.7,30.6,42,43.5
			c93,73.6,226,56,296-29c0.3-0.4,0.6-0.8,0.6-1.3c6.2-4.5,9.6-10.7,13.8-16.5c16.4-22.4,25.2-47.5,33.8-72.6
			c1.8,3.8,3.7,7.5,5.5,11.3c12.7,28.2,29.4,54.5,52.9,77.3c-6.5,13.8-13.1,27.5-19.6,41.3c-6.3,0-10.9,1.9-12,7.8
			c-1,5.4,2.9,8,7.9,10.2c9.2,4.1,18.3,8.4,27.4,12.6c4.1,1.9,8.3,2.9,12.2-0.1c3.8-3,3.3-6.9,1.7-10.5c-1.4-3.2-4.1-5.8-1.6-9.5
			c5.3-8,7.3-17.4,14-24.9c41.6,30.7,89.2,49.5,144.5,51.4c80.5,2.7,145.4-25.8,196-77.9c62.9-64.8,83.5-140.7,73.2-223.6
			c-1.8-15-5.4-29.8-8.1-44.7c5.6-2.7,8.2-7.5,10.7-12c22.2-39.6,24.7-80.1,2.7-119.8c-21.8-39.3-57.3-63-110.6-60
			c-23.6,1.3-45.1,8.2-60.9,24.6c-3.4-0.8-7-1.3-10.3-2.3c-69-21.8-135.3-16.9-198.7,14.9c-13,6.5-25.2,14.3-37.8,21.4
			c-29.8-33.3-67.9-51.3-117.9-50.9c-64.2,0.6-120.8,49.5-134.4,94.7c-4,0.9-7.9-0.2-11.8-0.8c-59.3-8.8-112.2,3.2-158.5,36.4
			C1057.5,406.9,1056.8,407,1056.1,407.1z M328.7,737c27.4,33.5,64.6,53.7,112.3,55.1c50,1.5,89.1-18.7,119-52.3
			c33.5-37.6,42.6-81,36.9-126.8c-3.1-24.2-10.9-47.8-28.8-67.8c0.3-2.1,0.6-4.1,1-6.2c1.5-2,3.3-3.9,4.3-6.1
			c30.8-66.1,25.8-129.8-22.3-188.2c-63.8-77.4-181.5-79.2-249-4.4c-46.1,51.1-55.3,109.2-35.4,170.9c7,21.6,17.3,42.1,35.7,58.7
			c0.9,2.1,1.8,4.1,2.7,6.2c-8.5,14.9-11.2,31-12.4,47.3c-15.5-0.1-30.9-0.4-45,7.3c-30,16.4-43.1,56.2-29.1,86.1
			c20.5,43.8,73.6,50.2,103.8,22.7C323.9,738.2,326.6,737.8,328.7,737z M1082.4,342.3c0-15.1-12.3-27.8-27-27.9
			c-14.9-0.1-27.6,12.3-27.9,27.3c-0.3,15.5,12.4,28.4,27.9,28.2C1070.7,369.8,1082.4,357.9,1082.4,342.3z M134.5,349.1
			c-0.1,15.7,11.4,27.3,27.1,27.4c15.6,0.1,27.6-11.6,27.6-27.1c0.1-15.5-11.8-27.3-27.4-27.4C146.2,322,134.6,333.5,134.5,349.1z
			 M1166.7,308.2c-0.8-7.8-4.7-13.5-14.1-14.4c-7.6-0.7-14.9,6.9-14.8,14.7c0.1,8.1,7.2,14.9,15.4,14.1
			C1162.9,321.6,1166.1,315.7,1166.7,308.2z M175,484.5c0.2,9,6.7,15.8,14.1,15.1c9.6-0.9,13.6-6.8,14.3-14.2
			c0.7-7.6-7.4-15.2-15.1-14.3C178.7,472.1,175.3,478,175,484.5z M1810.1,803.5c9.3-0.4,13.6-5.1,14-12.5
			c0.5-7.7-2.8-14.1-12.7-14.5c-9.1-0.5-13.6,5-14,12.4C1796.9,796.5,1800,802.3,1810.1,803.5z"/>
		<path class="st1" d="M1450.1,728.8c-23.6-22.7-40.2-49-52.9-77.3c-1.7-3.8-3.6-7.6-5.5-11.3c-6-17.7-10.7-35.6-14.4-53.7
			c-3.9-30.9-3-61.9,0.2-92.8c0.7-1.6,1.7-3.1,2.1-4.7c9.3-46,30.1-87.7,62.9-125.1c11.6-13.2,27.6-22.7,38.3-36.4
			c12.6-7.2,24.8-14.9,37.8-21.4c63.4-31.7,129.8-36.6,198.7-14.9c3.3,1,6.9,1.6,10.3,2.3c1.6,1,3,2.3,4.8,3
			c64.9,28,109.3,72,137.2,129.1c5.7,11.6,10.8,23.5,16.2,35.2c2.8,14.9,6.3,29.7,8.1,44.7c10.2,82.9-10.3,158.8-73.2,223.6
			c-50.6,52.1-115.5,80.6-196,77.9c-55.3-1.9-102.8-20.7-144.5-51.4c9.5-25.9,24.8-49.7,36.3-74.9c1.7-3.7,4.5-2.9,7.8-2
			c4.7,1.2,9.1,0.4,10.9-3.9c1.9-4.6,1-8.9-4.3-11.7c-3.1-1.6-6.3-3-9.4-4.5c-3.2-1.5-4.9-3.3-3.1-6.6c1.8-3.5,4.6-3.1,7.9-2.1
			c18.8,5.7,38.1,6.8,57.8,4.6c5.8,18.4,15.2,35.5,28,50.9c11.1,13.5,30.2,11.2,37.8-4c1.7-3.4,2.9-7.1,3.9-10.8
			c6.4-23.7,12.7-47.4,18.9-71.2c1.6-6.1,4.3-11.1,12-12.8c11.6,0.8,14.6,8.2,16.7,16.2c6.6,25.1,13.3,50.1,20,75.2
			c2.1,8,7.3,13.9,16.9,15.7c9.8,1.9,17.1-2.3,22.8-8.6c3.4-3.8,6.4-7.9,9-12.1c23.6-38.6,33.7-80.3,39.9-123.2
			c1.9-13.1-0.9-26.7,5.3-39.5c16.2-33.3,21.4-67.3,6.2-102c-13.1-29.7-56.8-59.3-104.2-39.8c-10.1,4.2-21.1,6.2-32.5,6.1
			c-12.9-0.6-24.8-4.6-36.8-8.3c-26.3-8-50-4.2-70.8,12.2c-5.6,0-11.2-0.1-16.8,0.1c-32,0.9-59.7,11.6-80.6,31.6
			c-31.8,30.5-47.3,66.8-42.3,108.5c4.7,39.6,22.2,73.3,60.2,97.6c5.6,3.6,7.1,6.8,4.3,11.9c-3.9-1.6-7.9-3.1-11.7-4.7
			c-4-1.6-7.8-1.8-10.6,1.5c-2.7,3.2-3.9,6.9-0.8,10.4c1.9,2.1,4.6,3.7,6.9,5.5C1473.7,683.6,1461.9,706.2,1450.1,728.8z
			 M1822.6,660.5c-11.8,0-18.1,5.5-18.2,16c-0.1,9.5,7.6,16.6,18.1,16.6c10.3,0.1,20-8.3,19.8-17.2
			C1842.2,667,1834,660.6,1822.6,660.5z"/>
		<path class="st2" d="M1015.4,443.8c8.2-7.8,16.4-15.6,24.6-23.4c3.3,4.4,2.3,9.3,2.2,14.1c-0.4,23.7-0.6,47.3,6.7,70.5
			c6.9,22.1,7.7,44.6,7.6,67.4c-0.4,58.7-0.1,117.4-0.1,176.2c0,3.1-0.3,6.2,0.3,9.2c0.9,4.6,3.8,6.8,9.3,4.1
			c9.5,0,9.2-5.8,9.2-11.5c0-67.2,0.1-134.4-0.2-201.6c0-10.6-2-21.2-8.9-30.5c-0.4-4.4-2.8-8.3-4.2-12.5c-2-5.9-8.2-11.1-5-18.1
			c5.1-1.3,7.9-4.3,9-8.7c25.3,0.5,20.5,1.3,21-17.9c0.1-3.8,0.1-7.6,0-11.3c-0.6-18.5,5.1-18.5-21.1-17.7
			c-1.4-8.6,2.3-18.4-7.5-25.1c46.3-33.2,99.2-45.2,158.5-36.4c3.9,0.6,7.7,1.7,11.8,0.8c0.1,0.8,0.3,1.6,0.4,2.4
			c-4,1.9-4.6,5.3-5.6,8.7c-6.2,21.7-10,43.3-6.9,65.9c5.8,43.3,24.7,80.3,63.5,109.3c9.4,7.1,21.1,11.1,30.2,18.3
			c-3.3,0.2-6.6,0.4-9.9,0.6c-14.3-0.1-28.7,0.2-43-0.5c-9.6-0.5-12.6,2.5-11.8,10.6c2.1,23.2,3.5,46.4,5.4,69.6
			c1.8,21.8,3.9,43.7,5.6,65.5c0.5,6.7,3.6,9.7,11.9,9.2c10.7-0.6,21.5-0.3,32.3-0.4c14.3,0,28.6-0.1,42.9-0.1
			c-70,85-203,102.6-296,29c-16.3-12.9-29.5-28-42-43.5c-0.7-1.3-1.4-2.6-2.1-3.8c4.6-2.3,5.8-6.3,7.3-10.2
			c19.4-50.4,15.7-99.2-13.9-146.1c-3.2-5.1-3.7-9.4-1-14.5c15.8-29.6,21.7-60.8,19.3-93.2C1015.2,446.7,1015.3,445.3,1015.4,443.8z
			 M1166.1,732.6c9.9,0.1,19.7,0.4,29.6,0.3c26.4-0.2,23.6,3.2,23.4-20.8c-2.3-35.2-4.8-70.4-6.9-105.6c-1.9-32.1-3.5-64.3-5.1-96.5
			c-0.4-8.8-1.2-17.4-12.7-21.2c5.2-13.7,1.9-27.8,2-41.7c0.1-5.1-5.1-6.6-10.3-6.5c-14.3,0.3-28.6,0.7-42.9,1.1
			c-4.2,0.1-7.2,1.8-7.2,5.4c0.3,13.9-3,27.9,2,41.7c-10,3.7-12,11-12.4,19.4c-0.9,20.5-2,41-3.2,61.5c-2.8,47.5-5.7,95-8.6,142.5
			c-0.1,2.7,0.2,5.5-0.3,8.2c-2,10.2,3.1,13.1,14.5,12.4C1140.6,732.1,1153.4,732.7,1166.1,732.6z"/>
		<path class="st3" d="M302.5,569.9c-18.4-16.6-28.7-37.1-35.7-58.7c-19.9-61.6-10.7-119.7,35.4-170.9c67.5-74.8,185.2-72.9,249,4.4
			c48.1,58.4,53.2,122.1,22.3,188.2c-1,2.2-2.9,4.1-4.3,6.1c-4.6-0.2-6.5-3.4-9-6.1c-22.6-24-49-43-85.9-48.3
			c2.1-6.6,3.9-13.3,6.2-19.8c1.7-4.7-0.2-6.2-5.5-6.2c-34.3,0.1-68.5,0.1-102.8,0.1c-4.7,0-6,1.3-5.2,5.5c3.2,19.3,5,20.9,26.9,21
			c3.2,0,6.4,0.2,9.5,0.4c-1.6,1.2-3.3,2.4-4.9,3.6c-4.4,0.1-8.8,0.5-13.2,0.3c-7.1-0.4-9.3,2.5-8.2,8c-27.7,13.3-47.4,33-62.2,56.8
			C311.6,559.9,310.8,567.3,302.5,569.9z M362.5,431.7c0,2.7-0.1,5.5-0.1,8.2c0.2,14.5,0.2,14.5,17.1,14.5c27,0,54.1,0.1,81.1,0.1
			c26.3,0,26.3,0,24.3-23.3c3.9-15.9,9.3-31.7,11.5-47.8c4.1-30.7-23.9-50.5-57.8-42.1c-5.3,1.3-10.9,1.5-16.4,2.2
			c-5.4-1-11-1.7-16.3-3.1c-26-6.7-47.6,5.4-53.5,28.1C346.6,391,360.4,410.6,362.5,431.7z"/>
		<path class="st4" d="M568.2,545.2c17.9,20,25.7,43.6,28.8,67.8c5.8,45.8-3.4,89.2-36.9,126.8c-29.9,33.6-69,53.8-119,52.3
			c-47.8-1.4-84.9-21.6-112.3-55.1c-0.8-1.4-1.5-2.8-2.3-4.2c22.1-19.8,22.7-62.2,2.5-85.2c-9.3-10.5-19.5-19.9-35.9-21.8
			c-0.1-0.8-0.2-1.6-0.3-2.4c1.2-16.4,4-32.4,12.4-47.3c4.1,3.2,8.3,6.3,12.3,9.7c66,56.3,168.4,51.1,226.6-11.3
			C552.8,565.1,559.3,554.5,568.2,545.2z M493.9,703.9c-12-0.1-21.1,8.9-21,20.8c0,11.4,8.7,20.3,20,20.6
			c12.8,0.4,22.9-8.8,22.8-20.8C515.6,713,506.1,704,493.9,703.9z M400.7,750.5c0.1,5.6,2,10.7,9.4,10.8c7.7,0.2,11.4-4.9,11.1-10.8
			c-0.3-5.5-3-11.3-11.1-11C402.7,739.9,400.8,744.9,400.7,750.5z M422.6,673.9c0-5.8-2.3-10.3-9.6-11c-7.7-0.7-11,3.9-11.4,9.3
			c-0.5,5.4,2,10.5,9.5,10.9C418.3,683.6,421.8,679.8,422.6,673.9z"/>
		<path class="st3" d="M1015.4,443.8c-0.1,1.4-0.2,2.8-0.2,4.2c-8.5,5.2-11.7,13.6-16.7,20.8c-12.1,17.4-18.1,36.9-26.4,55.7
			c-11.5-6.7-20.3-16.6-33.8-20.9c0.6-2.7,1.1-5.3,1.7-8c4.5-20.9,9.5-41.6,0.9-62.7c-11.2-27.6-41.2-39.6-72.3-28.5
			c-5.9,2.1-11.6,4.4-18.2,4.4c-0.1-8.9-0.2-17.8-0.4-26.8c-0.1-3.3,0.7-6.9-3.7-9.1c-11-5.6-21.1-12.5-33.3-16
			c-12.2-3.6-22.3-1.3-28.8,6.8c-5.8,7.3-5.9,14.8-0.1,22.1c6.4,8.1,16.6,10.4,28.7,7c9.6-2.8,17.8-7.7,26.2-12.2
			c5.5-3,8-1.9,7.9,3.7c-0.2,8.2-0.3,16.5-0.5,24.7c-7.1,0.5-13.2-2.3-19.4-4.5c-5.1-1.9-10.2-3.7-15.9-4.1
			c-27.4-2.2-53.1,16.2-57.8,42.4c-5,28.3,2.6,55.1,15,81.2c-16.8,16.1-31,33.5-38.8,54.3c-0.7-0.1-1.3-0.1-2-0.2
			c-59.3-64.2-59-156.2-13.4-218.8c40.7-55.9,114.6-81.8,181.6-61.4c52.1,15.8,84.8,48.9,105,92
			C1008.9,407.1,1013.3,425.3,1015.4,443.8z"/>
		<path class="st4" d="M727.6,578.1c0.7,0.1,1.3,0.1,2,0.2c1.4,2,2.5,4.4,4.4,6.1c45.5,43,114,58.5,175.5,34.1
			c21-8.3,38.2-21,55.2-34.1c-0.9,45.7,12.2,88.2,38.7,127.7c0.7,1.3,1.4,2.6,2.1,3.8c-14.3,21.1-29.7,41.4-53,56.3
			c-62.5,40.1-145.8,30.4-193.8-22.5c-2.9-3.2-5.5-6.7-9.8-8.9c0-1.3,0-2.5-0.1-3.8c4.6-0.5,6.4-3.5,8.4-6.5
			c5.5-8.1,8.2-17.1,9.8-26.2c5.3-30.6-16.4-68.8-51.2-74.2l-0.7-0.5C717.7,612.2,722.8,595.1,727.6,578.1z M938.6,729.5
			c-0.1-11.8-9.3-21.3-20.7-21.3c-11.4,0-20.7,9.5-20.8,21.2c-0.1,12.4,9.5,22.2,21.3,21.8C929.8,750.9,938.7,741.3,938.6,729.5z
			 M845,755.5c-0.5-5.7-3-10.1-10.4-10.3c-7.9-0.2-11.4,4.1-11.3,10.4c0,6.3,3.5,10.6,11.4,10.4C842.1,765.7,844.6,761.2,845,755.5z
			 M835.8,667.2c-7.1,1.3-10.4,5.3-10.2,11.1c0.2,5.7,3.1,10.6,10.5,10.2c6.9-0.3,10.7-5,10.4-10.7
			C846.2,672.4,842.9,668.1,835.8,667.2z"/>
		<path class="st5" d="M1228.9,373.7c-0.1-0.8-0.3-1.6-0.4-2.4c13.6-45.3,70.2-94.1,134.4-94.7c50.1-0.5,88.2,17.6,117.9,50.9
			c-10.8,13.7-26.8,23.2-38.3,36.4c-32.8,37.4-53.5,79.1-62.9,125.1c-0.3,1.6-1.4,3.2-2.1,4.7c-13.1-23.9-27.5-47.1-48.5-66.8
			C1301.3,401.2,1268.9,382.2,1228.9,373.7z"/>
		<path class="st6" d="M568.2,545.2c-8.9,9.2-15.4,19.9-24.1,29.3c-58.2,62.4-160.6,67.7-226.6,11.3c-3.9-3.4-8.2-6.5-12.3-9.7
			c-0.9-2.1-1.8-4.1-2.7-6.2c8.3-2.6,9.1-10,12.5-15.5c14.8-23.8,34.5-43.5,62.2-56.8c1.4,3.5,3.4,7,4.2,10.6c1,4.7,3.9,6.1,9.1,6
			c22.3-0.1,44.7-0.1,67,0.1c5.4,0,7.9-1.8,8.9-6.3c0.8-3.7,2.3-7.2,3.7-10.8c2.2-5.7,0.4-7.8-7-7.7c-21.5,0.3-43.1-0.1-64.6-0.2
			c1.6-1.2,3.3-2.4,4.9-3.6c23.6-0.4,47.2-0.7,70.8-1.1c36.9,5.3,63.3,24.3,85.9,48.3c2.5,2.7,4.3,5.8,9,6.1
			C568.8,541.1,568.5,543.2,568.2,545.2z M461.4,518.4c-19,0-38.1,0-57.2,0c-21.3,0-21-0.1-14.1,16.9c2,4.9,5.1,6.1,10.5,6
			c11.2-0.2,22.4,0,33.6,0c23.5,0,23.5,0,27.7-20.1C462,520.6,461.7,519.9,461.4,518.4z M424,545.9c0,0,0-0.1,0-0.1
			c-7.5,0-15.1,0.1-22.6,0c-6.4-0.1-7.1,2.3-5.5,7.1c2.9,9,9.4,14.3,20.2,14.6c12.8,0.4,26.9,2.8,34.1-10.5c5.1-9.4,4-10.9-8.3-11
			C435.9,545.9,430,545.9,424,545.9z"/>
		<path class="st7" d="M1885.7,460.8c-5.4-11.7-10.5-23.6-16.2-35.2c-27.9-57-72.3-101.1-137.2-129.1c-1.7-0.7-3.2-2-4.8-3
			c15.8-16.4,37.3-23.3,60.9-24.6c53.3-2.9,88.8,20.8,110.6,60c22,39.7,19.5,80.3-2.7,119.8C1893.8,453.3,1891.3,458.1,1885.7,460.8
			z"/>
		<path class="st7" d="M326.5,732.8c0.8,1.4,1.5,2.8,2.3,4.2c-2.1,0.8-4.8,1.2-6.3,2.5c-30.1,27.5-83.3,21.2-103.8-22.7
			c-14-29.9-0.9-69.7,29.1-86.1c14.1-7.7,29.5-7.4,45-7.3c0.1,0.8,0.2,1.6,0.3,2.4c0.1,14.6-1.3,29.3,2.4,43.8
			C301.3,692.3,308.4,714.6,326.5,732.8z"/>
		<path class="st7" d="M748.9,737c0,1.3,0,2.5,0.1,3.8c-26.6,28.3-72.9,26.6-96.7-3.5c-26.1-32.9-17.7-81,17.5-100.1
			c13.9-7.5,28.8-12,45.5-7.6c0,0,0.7,0.5,0.7,0.5c-1.9,12,0,23.9,1.9,35.7C721.9,691.5,730.4,715.9,748.9,737z"/>
		<path class="st8" d="M1485.5,661c-2.3-1.8-5-3.4-6.9-5.5c-3.1-3.5-1.9-7.2,0.8-10.4c2.8-3.3,6.7-3.1,10.6-1.5
			c3.9,1.6,7.8,3.1,11.7,4.7c4.9,4.5,6.3,0.3,8.2-2.5c2.3-3.4,2.3-7.8,6.2-10.5c16.1,7.9,33.9,11.6,51.8,10.2
			c38.4-3.1,69.1-18.9,89-47.6c27.5-39.6,31.5-81.7,10.8-124.4c-11.4-23.5-29-43.4-57.2-54.4c0.8-3.2,1.6-6.4,2.4-9.7
			c7.4,1,12.8,5.2,18.5,8.8c25,16.1,40.5,38,51,62.8c1.5,5.6,3.1,11.2,4.5,16.8c6,23.8,2.9,47.3-2.5,70.8c-1.4,2.8-3,5.5-4.3,8.3
			c-10.1,22.9-25.2,42.7-48,57.8c-14.5,9.6-31.3,14.7-48.3,19.6c-19.7,2.3-39,1.2-57.8-4.6c-3.3-1-6.1-1.4-7.9,2.1
			c-1.8,3.4,0,5.1,3.1,6.6c3.2,1.5,6.4,2.9,9.4,4.5c5.3,2.8,6.2,7.1,4.3,11.7c-1.8,4.3-6.2,5.1-10.9,3.9c-3.3-0.9-6.1-1.6-7.8,2
			c-11.5,25.2-26.8,49-36.3,74.9c-6.7,7.4-8.8,16.8-14.1,24.9c-2.4,3.7,0.2,6.4,1.6,9.5c1.6,3.6,2.1,7.5-1.7,10.5
			c-3.9,3.1-8.1,2-12.2,0.1c-9.1-4.2-18.2-8.5-27.4-12.6c-5-2.2-8.9-4.8-7.9-10.2c1-5.9,5.7-7.8,12-7.8
			c15.1,10.4,15.4,10.3,22.4-4.4c13.7-28.8,27.6-57.6,41.5-86.4C1500.3,666.9,1500.3,666.9,1485.5,661z"/>
		<path class="st2" d="M1377.3,586.5c3.7,18.1,8.4,36,14.4,53.7c-8.6,25.1-17.4,50.1-33.8,72.6c-4.2,5.7-7.6,12-13.8,16.5
			c-1.4-13.7,1.1-27.3,2.1-41c1.8-24.2,2.5-48.6,5.6-72.7c1.2-9.8-0.8-19.9,3.8-29.4C1362.8,586.3,1370.1,586.4,1377.3,586.5z"/>
		<path class="st8" d="M1065.9,761.9c-5.5,2.7-8.4,0.4-9.3-4.1c-0.6-3-0.3-6.2-0.3-9.2c0-58.7-0.3-117.4,0.1-176.2
			c0.2-22.7-0.7-45.3-7.6-67.4c-7.3-23.2-7-46.8-6.7-70.5c0.1-4.7,1.1-9.7-2.2-14.1c4.3-5.4,5.8-13.3,16.1-13.3
			c0.3,26.9,0.5,53.7,0.8,80.6c-3.2,7,3,12.2,5,18.1c1.4,4.2,3.8,8.1,4.2,12.5C1066,599.5,1066,680.7,1065.9,761.9z"/>
		<path class="st9" d="M1082.4,342.3c0,15.6-11.7,27.4-27.1,27.6c-15.4,0.2-28.2-12.8-27.9-28.2c0.3-15,13-27.4,27.9-27.3
			C1070.2,314.5,1082.5,327.2,1082.4,342.3z"/>
		<path class="st3" d="M134.5,349.1c0.1-15.6,11.6-27.1,27.3-27.1c15.6,0,27.5,11.9,27.4,27.4c-0.1,15.5-12,27.2-27.6,27.1
			C146,376.4,134.5,364.8,134.5,349.1z"/>
		<path class="st10" d="M1485.5,661c14.7,5.9,14.7,5.9,8.8,18.3c-13.8,28.8-27.8,57.6-41.5,86.4c-7,14.7-7.3,14.8-22.4,4.4
			c6.5-13.8,13.1-27.5,19.6-41.3C1461.9,706.2,1473.7,683.6,1485.5,661z"/>
		<path class="st11" d="M1355.6,586.2c-4.5,9.4-2.5,19.6-3.8,29.4c-3.1,24.1-3.8,48.4-5.6,72.7c-1,13.6-3.6,27.2-2.1,41
			c-0.1,0.5-0.3,0.9-0.6,1.3c-14.3,0-28.6,0.1-42.9,0.1c0-4.7,0-9.4,0-14.1c7.9-0.2,15.9-0.6,23.8-0.6c7.2,0,11.4-2.7,11.9-8.9
			c0.9-10.6,1.5-21.1,2.3-31.7c2.4-10.9,3.4-21.9,2.7-33c1.5-14.6,2.7-29.3,4.5-43.9c1.2-10-2.2-13.9-14.3-14.1
			c-10.4-0.2-20.8-0.2-31.1-0.2c-0.1-2.5-0.1-5.1-0.2-7.6c3.3-0.2,6.6-0.4,9.9-0.6c11.5,0,23,0.5,34.5,0
			C1353.6,575.6,1357,578.8,1355.6,586.2z"/>
		<path class="st4" d="M1056.9,487.7c-0.3-26.9-0.5-53.7-0.8-80.6c0.7-0.1,1.4-0.2,2.1-0.2c9.8,6.8,6.1,16.5,7.5,25.1
			c0,15.6,0.1,31.3,0.1,46.9C1064.8,483.4,1062,486.4,1056.9,487.7z"/>
		<path class="st9" d="M1166.7,308.2c-0.6,7.4-3.8,13.4-13.5,14.4c-8.2,0.8-15.3-6-15.4-14.1c-0.1-7.8,7.2-15.4,14.8-14.7
			C1162,294.7,1165.9,300.4,1166.7,308.2z"/>
		<path class="st3" d="M175,484.5c0.2-6.5,3.7-12.4,13.3-13.5c7.8-0.9,15.8,6.8,15.1,14.3c-0.7,7.4-4.7,13.4-14.3,14.2
			C181.7,500.3,175.2,493.5,175,484.5z"/>
		<path class="st9" d="M1810.1,803.5c-10-1.2-13.2-7-12.7-14.7c0.5-7.4,4.9-12.9,14-12.4c9.9,0.5,13.2,6.9,12.7,14.5
			C1823.6,798.4,1819.3,803.1,1810.1,803.5z"/>
		<path class="st12" d="M1684.4,568.8c5.4-23.5,8.5-47,2.5-70.8c-1.4-5.6-3-11.2-4.5-16.8c2.8-2.9,2.2-6.4,2.2-9.8
			c0-25.5,0-51.1-0.1-76.6c11.4,0.1,22.4-1.9,32.5-6.1c47.4-19.6,91.1,10.1,104.2,39.8c15.2,34.7,10.1,68.7-6.2,102
			c-6.2,12.7-3.4,26.3-5.3,39.5c-6.2,42.8-16.3,84.6-39.9,123.2c-2.6,4.2-5.6,8.3-9,12.1c-5.7,6.3-12.9,10.5-22.8,8.6
			c-9.6-1.9-14.7-7.7-16.9-15.7c-6.7-25.1-13.4-50.1-20-75.2c-2.1-8.1-5.1-15.4-16.7-16.2C1684.4,594.1,1684.4,581.4,1684.4,568.8z
			 M1782.8,461.3c0-12.9-10-23.2-22.8-23.5c-13.2-0.3-24,10.3-23.9,23.6c0.1,12.7,10.4,23.4,22.9,23.7
			C1771.9,485.4,1782.8,474.5,1782.8,461.3z"/>
		<path class="st9" d="M1355.6,586.2c1.4-7.4-1.9-10.6-11-10.3c-11.5,0.5-23,0-34.5,0c-9.1-7.2-20.8-11.2-30.2-18.3
			c-38.7-29.1-57.6-66.1-63.5-109.3c-3.1-22.6,0.7-44.3,6.9-65.9c1-3.4,1.6-6.8,5.6-8.7c40,8.4,72.5,27.4,100.1,53.2
			c21.1,19.6,35.4,42.9,48.5,66.8c-3.2,30.9-4.1,61.8-0.2,92.8C1370.1,586.4,1362.8,586.3,1355.6,586.2z"/>
		<path class="st10" d="M1613,409.5c-0.8,3.2-1.6,6.4-2.4,9.7c-4.5,5-5.1,11.3-7.9,16.8c-32.8-12.3-64.4-10.8-92.4,8.8
			c-64.7,45.2-57.3,135.4,13.6,172.7c-3.1,5.8-6.6,11.4-7.8,17.8c-3.9,2.7-3.9,7.1-6.2,10.5c-1.9,2.8-3.3,7-8.2,2.5
			c2.8-5.1,1.3-8.4-4.3-11.9c-38-24.3-55.5-58-60.2-97.6c-5-41.7,10.5-78,42.3-108.5c20.8-20,48.6-30.7,80.6-31.6
			c5.6-0.2,11.2-0.1,16.8-0.1C1589.7,400.4,1602.8,401.3,1613,409.5z"/>
		<path class="st13" d="M1684.4,568.8c0,12.7,0,25.3,0,37.9c-7.7,1.7-10.4,6.7-12,12.8c-6.2,23.7-12.6,47.5-18.9,71.2
			c-1,3.7-2.1,7.4-3.9,10.8c-7.6,15.2-26.7,17.5-37.8,4c-12.7-15.5-22.1-32.5-28-50.9c17-4.9,33.8-10,48.3-19.6
			c22.8-15.2,37.9-34.9,48-57.8C1681.4,574.2,1683,571.5,1684.4,568.8z"/>
		<path class="st13" d="M1613,409.5c-10.2-8.2-23.3-9.1-36-10.9c20.7-16.3,44.5-20.1,70.8-12.2c12,3.6,23.9,7.7,36.8,8.3
			c0,25.5,0.1,51.1,0.1,76.6c0,3.4,0.6,6.9-2.2,9.8c-10.5-24.8-25.9-46.8-51-62.8C1625.8,414.7,1620.4,410.5,1613,409.5z"/>
		<path class="st9" d="M1822.6,660.5c11.4,0,19.6,6.5,19.7,15.5c0.1,8.8-9.6,17.2-19.8,17.2c-10.5-0.1-18.2-7.1-18.1-16.6
			C1804.5,666.1,1810.8,660.5,1822.6,660.5z"/>
		<path class="st9" d="M1003.4,712.1c-26.5-39.5-39.6-82.1-38.7-127.7c-0.8-20.2,4.6-39.9,7.3-59.8c8.3-18.8,14.3-38.3,26.4-55.7
			c5-7.2,8.2-15.6,16.7-20.8c2.4,32.4-3.5,63.6-19.3,93.2c-2.7,5.1-2.2,9.4,1,14.5c29.5,46.9,33.2,95.7,13.9,146.1
			C1009.2,705.8,1008,709.9,1003.4,712.1z"/>
		<path class="st13" d="M1113.8,712.3c2.9-47.5,5.8-95,8.6-142.5c1.2-20.5,2.3-41,3.2-61.5c0.4-8.3,2.4-15.7,12.4-19.4
			c9.4,0.2,18.8,0.4,28.3,0.5c0,31.6-0.1,63.1-0.1,94.7c-24.5,3.4-39.2,18.7-39.3,40.8c-0.1,22,14.5,37.2,39.2,40.9
			c0,15.5,0,30.9,0,46.4C1148.7,712.3,1131.3,712.3,1113.8,712.3z"/>
		<path class="st11" d="M1166.2,712.2c0-15.5,0-30.9,0-46.4c7.4-1.4,14.8-2,21.4-6c15.2-9.2,22.9-27.4,18.3-45
			c-4.6-17.7-18.2-28.2-39.6-30.7c0-31.6,0.1-63.1,0.1-94.7c9.4-0.2,18.7-0.4,28.1-0.6c11.6,3.8,12.3,12.4,12.7,21.2
			c1.6,32.2,3.2,64.3,5.1,96.5c2.1,35.2,4.6,70.4,6.9,105.6c-17.7,0.2-35.4,0.5-53.1,0.7L1166.2,712.2z"/>
		<path class="st4" d="M1065.9,761.9c0.1-81.2,0.1-162.4,0.2-243.6c6.8,9.3,8.8,19.9,8.9,30.5c0.3,67.2,0.1,134.4,0.2,201.6
			C1075.2,756.1,1075.4,761.9,1065.9,761.9z"/>
		<path class="st13" d="M1300.2,576.6c0.1,2.5,0.1,5.1,0.2,7.6c0,0-0.2,0-0.2,0c-11.5,0.1-23.1,0.1-34.6,0.2
			c-9.6,0.1-13.4,4.2-12.4,12.5c1.8,15.2,3.1,30.5,4.7,45.8c0.8,11.5,1.5,23.1,2.3,34.6c-1.8,10.4,2.5,20.3,2.7,30.6
			c0.1,5.7,4.8,8.3,11.3,8.4c8.8,0.1,17.6,0.3,26.4,0.4c0,4.7,0,9.4,0,14.1c-10.8,0.1-21.5-0.2-32.3,0.4c-8.3,0.5-11.4-2.6-11.9-9.2
			c-1.7-21.8-3.9-43.7-5.6-65.5c-1.9-23.2-3.3-46.5-5.4-69.6c-0.7-8.1,2.2-11.1,11.8-10.6C1271.5,576.8,1285.9,576.5,1300.2,576.6z"
			/>
		<path class="st8" d="M1194.4,488.9c-9.4,0.2-18.7,0.4-28.1,0.6c-9.4-0.2-18.8-0.4-28.3-0.5c-5-13.7-1.7-27.8-2-41.7
			c-0.1-3.6,3-5.3,7.2-5.4c14.3-0.4,28.6-0.8,42.9-1.1c5.2-0.1,10.3,1.4,10.3,6.5C1196.2,461.1,1199.5,475.2,1194.4,488.9z
			 M1154.3,481c2.4-9.5,2.7-19-0.2-28.5C1151.7,462,1151.4,471.5,1154.3,481z M1145.2,481.1c2-9.6,2.8-19.2-0.5-28.6
			C1142.7,462,1141.7,471.5,1145.2,481.1z M1178.2,452.4c-2.4,9.7-3.1,19.3,0.1,28.9C1181.2,471.7,1181.3,462.1,1178.2,452.4z
			 M1187.7,452.4c-2.7,9.5-3,18.9,0.1,28.4C1190.6,471.3,1191.1,461.8,1187.7,452.4z M1170.7,452.8c-2,9.5-3,19,0.5,28.4
			C1173.7,471.7,1174.4,462.3,1170.7,452.8z M1161.5,481c2.8-9.3,2.8-18.7,0.4-28.1C1158.4,462.2,1159.4,471.6,1161.5,481z"/>
		<path class="st0" d="M1113.8,712.3c17.5,0,34.9-0.1,52.4-0.1c0,0-0.2,0.7-0.2,0.7c0,6.6,0.1,13.2,0.1,19.8
			c-12.7,0-25.5-0.5-38.1,0.3c-11.3,0.7-16.5-2.2-14.5-12.4C1114.1,717.8,1113.7,715,1113.8,712.3z"/>
		<path class="st7" d="M1166.1,732.6c0-6.6-0.1-13.2-0.1-19.8c17.7-0.2,35.4-0.5,53.1-0.7c0.2,24,3,20.6-23.4,20.8
			C1185.8,733,1176,732.8,1166.1,732.6z"/>
		<path class="st13" d="M1065.8,479c0-15.6-0.1-31.3-0.1-46.9c26.2-0.9,20.5-0.8,21.1,17.7c0.1,3.8,0.1,7.6,0,11.3
			C1086.3,480.3,1091.1,479.5,1065.8,479z"/>
		<path class="st12" d="M422.2,343.6c5.5-0.7,11.1-0.9,16.4-2.2c33.9-8.4,61.9,11.3,57.8,42.1c-2.2,16.1-7.6,31.9-11.5,47.8
			c-20.8-0.2-41.7-0.4-62.5-0.5C422.4,401.6,422.3,372.6,422.2,343.6z"/>
		<path class="st13" d="M422.2,343.6c0.1,29,0.2,58.1,0.2,87.1c-20,0.4-40,0.7-60,1.1c-2.1-21.2-15.9-40.7-10-63.2
			c5.9-22.7,27.6-34.7,53.5-28.1C411.3,341.8,416.8,342.6,422.2,343.6z"/>
		<path class="st8" d="M474.3,484.7c-23.6,0.4-47.2,0.7-70.8,1.1c-3.2-0.1-6.4-0.3-9.5-0.4c-21.9-0.2-23.7-1.8-26.9-21
			c-0.7-4.3,0.6-5.5,5.2-5.5c34.3,0,68.5,0,102.8-0.1c5.3,0,7.2,1.5,5.5,6.2C478.2,471.4,476.3,478.1,474.3,484.7z"/>
		<path class="st8" d="M362.5,431.7c20-0.4,40-0.7,60-1.1c20.8,0.2,41.7,0.4,62.5,0.5c2,23.3,2,23.4-24.3,23.3
			c-27,0-54.1-0.1-81.1-0.1c-16.9,0-16.9,0-17.1-14.5C362.4,437.2,362.4,434.5,362.5,431.7z"/>
		<path class="st8" d="M398.6,489.4c21.5,0.1,43.1,0.4,64.6,0.2c7.4-0.1,9.2,2,7,7.7c-1.4,3.6-3,7.1-3.7,10.8
			c-0.9,4.5-3.5,6.3-8.9,6.3c-22.3-0.2-44.7-0.2-67-0.1c-5.2,0-8.1-1.3-9.1-6c-0.8-3.6-2.8-7.1-4.2-10.6c-1.1-5.6,1.1-8.5,8.2-8
			C389.8,489.9,394.2,489.5,398.6,489.4z"/>
		<path class="st2" d="M326.5,732.8c-18.1-18.3-25.2-40.5-31-63.2c-3.7-14.5-2.3-29.2-2.4-43.8c16.4,1.9,26.6,11.3,35.9,21.8
			C349.2,670.6,348.6,713.1,326.5,732.8z"/>
		<path class="st3" d="M493.9,703.9c12.2,0.1,21.7,9.1,21.8,20.6c0.1,12-10,21.1-22.8,20.8c-11.3-0.3-20-9.2-20-20.6
			C472.8,712.8,481.9,703.8,493.9,703.9z"/>
		<path class="st3" d="M400.7,750.5c0-5.6,2-10.6,9.4-10.9c8.1-0.3,10.8,5.4,11.1,11c0.3,5.9-3.3,11-11.1,10.8
			C402.7,761.2,400.8,756.1,400.7,750.5z"/>
		<path class="st3" d="M422.6,673.9c-0.8,5.9-4.3,9.7-11.5,9.3c-7.6-0.5-10-5.5-9.5-10.9c0.5-5.4,3.7-10.1,11.4-9.3
			C420.3,663.6,422.6,668.1,422.6,673.9z"/>
		<path class="st6" d="M972,524.6c-2.8,19.9-8.2,39.6-7.3,59.8c-17,13.1-34.2,25.8-55.2,34.1c-61.5,24.3-130.1,8.9-175.5-34.1
			c-1.8-1.7-2.9-4.1-4.4-6.1c7.8-20.8,22-38.3,38.8-54.3c17.2,26.8,42.6,41.9,79.2,41.4c29.6,0.8,53.8-7.9,71.7-29.1
			c8.5-10.1,12.7-21.7,19-32.5C951.7,508,960.5,517.9,972,524.6z"/>
		<path class="st14" d="M938.3,503.7c-6.3,10.9-10.5,22.5-19,32.5c-17.9,21.1-42.1,29.8-71.7,29.1c-0.1-49.2-0.2-98.5-0.2-147.7
			c4.4-2,1.8-5.8,3.1-8.6c6.5-0.1,12.3-2.3,18.2-4.4c31.1-11.1,61.1,0.8,72.3,28.5c8.6,21.1,3.5,41.9-0.9,62.7
			C939.4,498.4,938.8,501.1,938.3,503.7z"/>
		<path class="st15" d="M847.3,417.6c0.1,49.2,0.1,98.5,0.2,147.7c-36.5,0.6-62-14.5-79.2-41.4c-12.4-26-20-52.9-15-81.2
			c4.6-26.2,30.4-44.6,57.8-42.4c5.7,0.5,10.8,2.3,15.9,4.1c6.2,2.3,12.3,5,19.4,4.5C846.7,411.9,847,414.7,847.3,417.6z
			 M827.8,444.8c0.1-16.9-13.4-30.7-29.7-30.5c-15.8,0.2-29.2,13.8-29.6,29.9c-0.4,16.7,12.9,30.6,29.4,30.8
			C814.7,475.1,827.7,462.1,827.8,444.8z"/>
		<path class="st8" d="M847.3,417.6c-0.3-2.8-0.6-5.7-0.9-8.5c0.2-8.2,0.3-16.5,0.5-24.7c0.1-5.6-2.3-6.7-7.9-3.7
			c-8.4,4.6-16.7,9.5-26.2,12.2c-12.1,3.5-22.2,1.1-28.7-7c-5.8-7.3-5.7-14.9,0.1-22.1c6.5-8.1,16.5-10.3,28.8-6.8
			c12.3,3.6,22.4,10.5,33.3,16c4.3,2.2,3.6,5.8,3.7,9.1c0.2,8.9,0.3,17.8,0.4,26.8C849.1,411.8,851.7,415.6,847.3,417.6z"/>
		<path class="st2" d="M748.9,737c-18.4-21.1-27-45.5-31.1-71.2c-1.9-11.8-3.8-23.7-1.9-35.7c34.9,5.3,56.5,43.5,51.2,74.2
			c-1.6,9.1-4.3,18.1-9.8,26.2C755.3,733.5,753.5,736.5,748.9,737z"/>
		<path class="st9" d="M938.6,729.5c0.1,11.8-8.8,21.4-20.2,21.8c-11.8,0.3-21.4-9.5-21.3-21.8c0.1-11.8,9.3-21.2,20.8-21.2
			C929.3,708.2,938.5,717.7,938.6,729.5z"/>
		<path class="st9" d="M845,755.5c-0.4,5.7-3,10.2-10.3,10.4c-7.9,0.3-11.4-4-11.4-10.4c0-6.3,3.5-10.6,11.3-10.4
			C842,745.4,844.6,749.8,845,755.5z"/>
		<path class="st9" d="M835.8,667.2c7.1,0.8,10.4,5.2,10.7,10.6c0.3,5.7-3.5,10.4-10.4,10.7c-7.4,0.4-10.4-4.5-10.5-10.2
			C825.4,672.5,828.7,668.5,835.8,667.2z"/>
		<path class="st8" d="M461.4,518.4c0.2,1.5,0.6,2.2,0.4,2.8c-4.2,20.1-4.2,20.1-27.7,20.1c-11.2,0-22.4-0.2-33.6,0
			c-5.4,0.1-8.5-1.1-10.5-6c-6.9-17-7.1-16.9,14.1-16.9C423.3,518.4,442.5,518.4,461.4,518.4z"/>
		<path class="st8" d="M424,545.9c5.9,0,11.9,0,17.8,0c12.3,0.1,13.4,1.6,8.3,11c-7.2,13.4-21.3,10.9-34.1,10.5
			c-10.8-0.3-17.2-5.7-20.2-14.6c-1.6-4.7-0.9-7.2,5.5-7.1c7.5,0.1,15.1,0,22.6,0C424,545.8,424,545.9,424,545.9z"/>
		<path class="st4" d="M1516.2,635.3c1.2-6.4,4.7-12.1,7.8-17.8c60.8,23.6,107.8-9.2,125.8-45.1c22.5-44.6,12-106-47-136.4
			c2.8-5.5,3.4-11.9,7.9-16.8c28.2,11,45.8,30.8,57.2,54.4c20.7,42.7,16.7,84.7-10.8,124.4c-19.9,28.6-50.6,44.5-89,47.6
			C1550,646.9,1532.2,643.2,1516.2,635.3z"/>
		<path class="st4" d="M1260.2,677.2c-0.8-11.5-1.5-23.1-2.3-34.6c14.2-0.2,28.5-0.5,42.7-0.7c13.6,0.2,27.2,0.3,40.7,0.5
			c0.6,11.1-0.3,22.1-2.7,33c-14.6,7.3-29.8,11.5-47.1,10.2C1280.1,684.8,1271.4,677.8,1260.2,677.2z"/>
		<path class="st8" d="M1260.2,677.2c11.2,0.6,19.9,7.5,31.3,8.4c17.3,1.3,32.6-2.9,47.1-10.2c-0.8,10.6-1.4,21.2-2.3,31.7
			c-0.5,6.3-4.7,8.9-11.9,8.9c-7.9,0-15.9,0.4-23.8,0.6c-8.8-0.1-17.6-0.3-26.4-0.4c-6.5-0.1-11.2-2.7-11.3-8.4
			C1262.7,697.6,1258.4,687.6,1260.2,677.2z"/>
		<path class="st6" d="M1341.3,642.4c-13.6-0.2-27.2-0.3-40.7-0.5c-0.1-19.3-0.2-38.5-0.4-57.8c0,0,0.2,0,0.2,0
			c10.4,0.1,20.8,0,31.1,0.2c12.1,0.2,15.5,4.1,14.3,14.1C1344,613.1,1342.8,627.8,1341.3,642.4z"/>
		<path class="st14" d="M1782.8,461.3c0,13.2-10.9,24.1-23.9,23.8c-12.5-0.3-22.8-11-22.9-23.7c-0.1-13.3,10.7-23.9,23.9-23.6
			C1772.7,438.1,1782.8,448.4,1782.8,461.3z"/>
		<path class="st13" d="M1602.7,436c59,30.4,69.5,91.8,47,136.4c-18,35.8-65,68.7-125.8,45.1c-70.9-37.3-78.3-127.4-13.6-172.7
			C1538.3,425.2,1570,423.7,1602.7,436z M1610.5,530.5c-0.1-6.8,0.7-13.8-0.3-20.5c-4.4-29.1-35.9-46.7-63.7-35.9
			c-27.8,10.8-39.1,44.8-23.3,70.4c14.9,24.2,40.8,28.9,70.6,12.8c5.5,5,11.1,10.4,20.2,7.2c8.6-3,12.5-9.6,12.1-17.1
			C1625.8,538.9,1620.9,532.5,1610.5,530.5z M1554.3,596c0.4-8.7-7.4-17.2-16.2-17.8c-9.3-0.5-17,6.8-17.2,16.3
			c-0.3,9.7,6.5,17.5,15.6,18C1544.9,613,1553.9,604.6,1554.3,596z M1523.4,458.2c0.4,5.9,3.3,10.7,11.2,10.6c7.8-0.1,11-4.8,11-11
			c0-6.6-3.3-11.6-11.8-11.3C1526,446.8,1523.5,451.9,1523.4,458.2z M1480.4,534.6c0.3,5.6,2.8,10,9.5,10.1c6.7,0.2,9.7-4.1,9.9-9.6
			c0.2-5.6-3.1-9.7-9.5-9.9C1483.5,525,1480.9,529.4,1480.4,534.6z M1636,501.8c4.8-0.4,7-3.1,7.1-6.7c0.1-4.2-2.5-7.4-7.7-7.2
			c-4.7,0.1-6.5,3.4-6.4,7.1C1629.2,498.7,1631.3,501.3,1636,501.8z"/>
		<path class="st8" d="M1166.2,584.2c21.4,2.4,35,13,39.6,30.7c4.6,17.6-3,35.8-18.3,45c-6.6,4-14,4.6-21.4,6
			c-24.7-3.6-39.3-18.8-39.2-40.9C1127,602.9,1141.7,587.6,1166.2,584.2z M1166.4,605c-15-2.8-21.4,2-19.3,14.7
			c0.9,5.4,1.8,10.9,3.5,16.1c1.6,5.1,1.3,13.1,8.2,13.4c6.2,0.3,3.7-7.8,6.2-11.8c0.4-0.6,1-1.1,1.5-1.6c1.3,2.5,2.7,4.9,3.8,7.4
			c1.1,2.5,1.1,6.2,4.9,6.3c4.4,0.1,5.4-3.8,6.3-6.6c2.2-6.9,3.7-14,5.4-21C1190.5,606.9,1183.5,601.1,1166.4,605z"/>
		<path class="st12" d="M1300.2,584.2c0.1,19.3,0.2,38.5,0.4,57.8c-14.2,0.2-28.5,0.5-42.7,0.7c-1.5-15.3-2.8-30.5-4.7-45.8
			c-1-8.3,2.8-12.4,12.4-12.5C1277.2,584.3,1288.7,584.2,1300.2,584.2z"/>
		<path class="st4" d="M1154.3,481c-2.9-9.5-2.6-19-0.2-28.5C1157,462,1156.7,471.5,1154.3,481z"/>
		<path class="st4" d="M1145.2,481.1c-3.5-9.5-2.4-19.1-0.5-28.6C1148,461.9,1147.1,471.5,1145.2,481.1z"/>
		<path class="st4" d="M1178.2,452.4c3,9.6,3,19.2,0.1,28.9C1175.1,471.7,1175.8,462.1,1178.2,452.4z"/>
		<path class="st4" d="M1187.7,452.4c3.4,9.5,2.8,18.9,0.1,28.4C1184.7,471.3,1185,461.8,1187.7,452.4z"/>
		<path class="st4" d="M1170.7,452.8c3.7,9.5,2.9,18.9,0.5,28.4C1167.7,471.8,1168.7,462.3,1170.7,452.8z"/>
		<path class="st4" d="M1161.5,481c-2.1-9.4-3.1-18.8,0.4-28.1C1164.3,462.3,1164.3,471.7,1161.5,481z"/>
		<path class="st10" d="M827.8,444.8c-0.1,17.3-13,30.3-29.9,30.1c-16.5-0.2-29.8-14.1-29.4-30.8c0.3-16.1,13.8-29.7,29.6-29.9
			C814.4,414.1,827.9,427.9,827.8,444.8z"/>
		<path class="st14" d="M1593.8,557.3c-29.8,16-55.8,11.3-70.6-12.8c-15.8-25.6-4.5-59.6,23.3-70.4c27.8-10.8,59.2,6.8,63.7,35.9
			c1,6.7,0.3,13.7,0.3,20.5C1594.2,535.6,1592.7,537.9,1593.8,557.3z"/>
		<path class="st2" d="M1593.8,557.3c-1.1-19.3,0.3-21.7,16.7-26.8c10.4,2,15.3,8.4,15.7,16.8c0.4,7.5-3.5,14.1-12.1,17.1
			C1605,567.6,1599.3,562.3,1593.8,557.3z"/>
		<path class="st2" d="M1554.3,596c-0.3,8.6-9.3,16.9-17.8,16.5c-9.1-0.4-15.9-8.3-15.6-18c0.3-9.6,8-16.9,17.2-16.3
			C1546.8,578.8,1554.6,587.3,1554.3,596z"/>
		<path class="st2" d="M1523.4,458.2c0.2-6.3,2.6-11.4,10.4-11.7c8.4-0.3,11.8,4.7,11.8,11.3c0,6.2-3.2,10.9-11,11
			C1526.7,468.8,1523.8,464.1,1523.4,458.2z"/>
		<path class="st2" d="M1480.4,534.6c0.5-5.2,3.1-9.6,9.9-9.4c6.4,0.3,9.7,4.3,9.5,9.9c-0.2,5.4-3.2,9.7-9.9,9.6
			C1483.3,544.6,1480.7,540.2,1480.4,534.6z"/>
		<path class="st9" d="M1636,501.8c-4.7-0.5-6.8-3.1-6.9-6.9c-0.1-3.8,1.6-7,6.4-7.1c5.2-0.1,7.8,3.1,7.7,7.2
			C1643,498.7,1640.8,501.4,1636,501.8z"/>
		<path class="st1" d="M1166.4,605c17.1-4,24.1,1.9,20.4,16.9c-1.7,7-3.3,14.1-5.4,21c-0.9,2.8-1.9,6.7-6.3,6.6
			c-3.9-0.1-3.8-3.8-4.9-6.3c-1.1-2.5-2.5-4.9-3.8-7.4C1166.4,625.6,1166.4,615.3,1166.4,605z"/>
		<path class="st12" d="M1166.4,605c0,10.3,0,20.5,0,30.8c-0.5,0.5-1.1,1-1.5,1.6c-2.4,4,0,12.1-6.2,11.8c-6.8-0.3-6.6-8.4-8.2-13.4
			c-1.6-5.3-2.6-10.7-3.5-16.1C1145,607,1151.4,602.2,1166.4,605z"/>
	</g>
</g>
<rect y="250" class="st16" width="1920" height="580"/>
</svg>
