<?xml version="1.0" encoding="utf-8"?>
<!-- Generator: Adobe Illustrator 24.0.2, SVG Export Plug-In . SVG Version: 6.00 Build 0)  -->
<svg version="1.1" id="Capa_1" xmlns="http://www.w3.org/2000/svg" xmlns:xlink="http://www.w3.org/1999/xlink" x="0px" y="0px"
	 viewBox="0 0 1366 768" style="enable-background:new 0 0 1366 768;" xml:space="preserve">
<style type="text/css">
	.st0{clip-path:url(#SVGID_1_);fill:#67A8EF;}
	.st1{clip-path:url(#SVGID_1_);}
	.st2{clip-path:url(#SVGID_2_);fill:#88C7FC;}
	.st3{clip-path:url(#SVGID_2_);fill:#257FD8;}
	.st4{clip-path:url(#SVGID_2_);fill:#0D62BF;}
	.st5{clip-path:url(#SVGID_2_);fill:#002977;}
	.st6{clip-path:url(#SVGID_2_);fill:#FFFFFF;}
	.st7{clip-path:url(#SVGID_2_);fill:#FFB349;}
	.st8{clip-path:url(#SVGID_2_);fill:#EA9228;}
	.st9{clip-path:url(#SVGID_2_);fill:#C1E3FE;}
	.st10{clip-path:url(#SVGID_2_);fill:#C2E2F8;}
	.st11{clip-path:url(#SVGID_2_);fill:#DEF2FF;}
</style>
<g>
	<g>
		<defs>
			<rect id="SVGID_3_" x="-277" y="-31" width="1920" height="728"/>
		</defs>
		<clipPath id="SVGID_1_">
			<use xlink:href="#SVGID_3_"  style="overflow:visible;"/>
		</clipPath>
		<rect x="-277" y="-31" class="st0" width="1920" height="728"/>
		<g class="st1">
			<defs>
				<rect id="SVGID_4_" x="-277" y="-31" width="1920" height="728"/>
			</defs>
			<clipPath id="SVGID_2_">
				<use xlink:href="#SVGID_4_"  style="overflow:visible;"/>
			</clipPath>
			<path class="st2" d="M996.6,255.2c0,100-142.5,181-318.3,181c-175.8,0-318.3-81.1-318.3-181c0-100,142.5-181,318.3-181
				C854.1,74.2,996.6,155.2,996.6,255.2"/>
			<rect x="411.8" y="419.1" class="st3" width="542.4" height="161.2"/>
			<rect x="-130.6" y="457.5" class="st3" width="542.4" height="122.9"/>
			<rect x="954.2" y="494.5" class="st3" width="542.4" height="85.8"/>
			<rect x="409.2" y="457.5" class="st4" width="5.1" height="122.9"/>
			<rect x="951.6" y="494.5" class="st4" width="5.1" height="85.8"/>
			<path class="st5" d="M671.7,474.8c2.2-1.3,4.6-1.9,7.3-1.9c2.6,0,4.6,0.1,6.1,0.4c1.5,0.2,2.6,0.5,3.3,0.8
				c0.8,0.3,1.4,0.8,1.8,1.6c0.4,0.8,0.6,2.1,0.6,3.9v40.7c0,1.1-0.1,2-0.2,2.5c-0.1,0.6-0.5,1.2-1.2,1.9c-1.2,1.3-4.5,2-10,2
				c-5.3,0-8.6-0.6-9.9-1.9c-0.7-0.7-1.1-1.4-1.2-2c-0.1-0.6-0.2-1.5-0.2-2.7V494l-1.7,0.9c-3.5,1.5-6.5,2.3-9,2.3
				c-2.5,0-5.1-0.9-7.8-2.6c-2.7-1.7-4-3.2-4-4.5c0-1.3,1.5-2.8,4.6-4.3l21.1-10.8L671.7,474.8z"/>
			<path class="st5" d="M170.6,533.2c3.5,0,6,0.2,7.5,0.7c1.5,0.5,2.5,1.2,3,2.1c0.5,0.9,0.8,2.2,0.8,3.7c0,1.5-0.3,2.8-0.8,3.7
				c-0.6,0.9-1.5,1.6-2.8,1.9c-1.9,0.6-4.5,0.9-8,0.9H120c-3.1,0-5.7-0.7-8-2s-3.3-2.9-3.3-4.6c0-2.6,1.6-5.1,4.8-7.3
				c3.2-2.2,7.1-4.1,11.6-5.7s9.1-3.1,13.6-4.7c4.5-1.5,8.4-3.3,11.6-5.2c3.2-1.9,4.8-4,4.8-6.2c0-0.4-0.3-1.1-0.9-1.9
				c-0.6-0.8-1.3-1.5-2-2c-0.7-0.5-1.9-1-3.4-1.4c-1.5-0.4-3.7-0.7-6.4-0.7c-2.7,0-5.1,0.6-7.1,1.7c-2,1.1-3.1,2.3-3.4,3.4l-0.5,1.7
				v0.4c0,1.1-0.1,1.9-0.2,2.4c-0.1,0.5-0.5,1.1-1.2,1.8c-1.3,1.2-4.6,1.8-10,1.8c-6,0-9.6-0.9-10.7-2.8c-0.4-0.8-0.6-2-0.6-3.7
				c0-5.1,3.2-9.6,9.6-13.6c6.4-4,14.7-6,25.1-6c10.3,0,18.7,2,25.1,6.1c6.4,4.1,9.6,8.7,9.6,13.9c0,2.8-1.1,5.4-3.2,7.9
				c-2.1,2.5-4.7,4.5-7.7,6c-6.3,3.2-12,5.4-17,6.5l-3.2,0.7v0.4H170.6z"/>
			<path class="st5" d="M1237.1,516.5c6.1,3.4,9.1,7.2,9.1,11.5c0,4.3-3.3,7.3-10,9.2v0.5c0.9,0.2,2.1,0.8,3.8,1.6
				c1.7,0.8,3,1.6,4,2.4c2.8,2,4.2,4.4,4.2,7c0,5.2-3.4,9.5-10.3,12.9c-6.9,3.4-15.5,5.1-25.8,5.1c-10.3,0-18.9-1.7-25.7-5.1
				c-2.6-1.3-4.8-3-6.8-5.2c-0.7-0.8-1.2-1.4-1.4-1.9l-0.3-0.7c-0.9-1.6-1.4-2.9-1.4-3.9c0-2.8,4.2-4.2,12.6-4.2
				c3.4,0,5.7,0.2,6.8,0.7c1.5,0.6,2.7,1.9,3.9,3.8c0.9,1.6,3.2,2.7,7.1,3.5c1.6,0.3,3.4,0.4,5.4,0.4c4.5,0,7.9-0.5,10-1.6
				c2.1-1,3.2-2.2,3.2-3.5c0-1.3-1-2.5-3.1-3.5c-2.1-1-4.6-1.5-7.5-1.5c-2.9,0-4.8,0-5.8-0.1c-1-0.1-2.1-0.3-3.3-0.7
				c-2.3-0.6-3.5-2.5-3.5-5.6c0-3.4,1.6-5.4,4.8-6.1c1.5-0.2,3.7-0.4,6.7-0.4c6.5,0,9.8-0.9,9.8-2.9c0-1-0.9-2-2.6-2.9
				c-1.7-0.9-4.1-1.4-7.1-1.4c-3,0-5.5,0.3-7.3,0.9c-1.8,0.6-2.9,1.2-3.3,1.8l-0.8,0.9c-2,2.4-4.8,3.7-8.5,3.7
				c-2.1,0-4.5-0.4-7.1-1.3c-4.3-1.4-6.4-3-6.4-4.9c0-0.8,1-2.4,3-5c0.3-0.4,1.3-1.2,2.8-2.3c1.5-1.1,3.3-2.1,5.3-2.9
				c2-0.8,4.8-1.6,8.5-2.3c3.6-0.7,7.7-1,12.1-1C1222.7,511.4,1231,513.1,1237.1,516.5"/>
			<rect x="-159.9" y="578.9" class="st4" width="1685.8" height="2.9"/>
			<path class="st6" d="M914.1,328.1c-54.3,0-60.2-26.3-60.3-26.6l5.1-0.3c0.2,1.1,6.3,27.3,66,23.7l0.5,2.9
				C921.5,328,917.7,328.1,914.1,328.1"/>
			<polygon class="st2" points="1098.5,96.2 1098.5,96.2 1106.1,83.5 1076.8,78.8 1074.3,83 1073.8,83.9 1071.8,87.3 1070.9,88.7 
				1056.6,112.6 1055.7,114 1054,116.9 1053.2,118.3 1051.5,121.1 1050.7,122.5 1049,125.3 1048.1,126.7 1046.5,129.5 1046.2,130 
				1043.9,133.8 1043.1,135.2 1071.1,141.8 1074.8,135.6 1075.7,134.2 1088.8,112.2 1089.5,111.1 1093.9,103.8 1095.9,100.4 
				1097.6,97.6 			"/>
			<polygon class="st6" points="1101.5,91.1 1079.3,85.6 1080.1,84.2 1103.5,87.7 			"/>
			<polygon class="st6" points="1104,86.8 1081.8,81.3 1082.7,79.9 1106,83.5 			"/>
			<polygon class="st6" points="1099,95.3 1076.8,89.8 1077.6,88.4 1101,91.9 			"/>
			<polygon class="st6" points="1096.4,99.5 1074.2,94 1075.1,92.6 1098.5,96.2 			"/>
			<polygon class="st6" points="1093.9,103.8 1071.7,98.2 1072.5,96.8 1095.9,100.4 			"/>
			<polygon class="st6" points="1091.4,108 1069.2,102.5 1070,101.1 1093.4,104.6 			"/>
			<polygon class="st6" points="1088.8,112.2 1066.6,106.7 1067.5,105.3 1090.9,108.9 			"/>
			<polygon class="st6" points="1086.3,116.5 1064.1,110.9 1064.9,109.5 1088.3,113.1 			"/>
			<polygon class="st6" points="1083.8,120.7 1061.6,115.2 1062.4,113.8 1085.8,117.3 			"/>
			<polygon class="st6" points="1081.2,124.9 1059,119.4 1059.9,118 1083.3,121.5 			"/>
			<polygon class="st6" points="1078.7,129.1 1056.5,123.6 1057.3,122.2 1080.7,125.8 			"/>
			<polygon class="st6" points="1076.2,133.4 1054,127.9 1054.8,126.4 1078.2,130 			"/>
			<polygon class="st6" points="1073.7,137.6 1051.4,132.1 1052.3,130.7 1075.7,134.2 			"/>
			<polygon class="st6" points="1071.1,141.8 1048.9,136.3 1049.8,134.9 1073.1,138.5 			"/>
			<path class="st5" d="M1008.4,220c3.7-5.8,6.4-11.7,8-17.8l17.9-66c0.7,0.2,1.4,0.4,2.1,0.5l4.9,1l36.8-61.4l-4.9-1
				c-8.6-1.7-17.9,1-20.8,5.8l-26.2,43.7c-0.2,0.4-0.4,0.8-0.5,1.1l0,0c0,0-150.2,257.5-170.6,286.3c-1.8,2.5,0.5,5.3,5,6.2
				c8.1,1.6,17-0.6,20.5-5.1C902.5,385.5,986,255.1,1008.4,220"/>
			<path class="st6" d="M947.6,319.6c-1.1,0-2.1-0.4-2.4-1c-0.8-0.3-3.7-0.5-6.2-0.3c-1.4,0.1-2.7-0.5-2.8-1.3
				c-0.1-0.8,0.9-1.5,2.3-1.6c3.1-0.2,10.4-0.2,11.5,2.4c0.3,0.8-0.5,1.6-1.9,1.8C948,319.6,947.8,319.6,947.6,319.6"/>
			<path class="st6" d="M944.3,324.4c-1.1,0-2.1-0.4-2.4-1c-0.8-0.3-3.8-0.5-6.2-0.3c-1.4,0.1-2.7-0.5-2.8-1.3
				c-0.1-0.8,0.9-1.5,2.3-1.6c3.1-0.2,10.4-0.2,11.5,2.4c0.3,0.8-0.5,1.6-1.9,1.8C944.7,324.4,944.5,324.4,944.3,324.4"/>
			<path class="st6" d="M941.5,329.4c-1.1,0-2.1-0.4-2.4-1c-0.8-0.3-3.8-0.5-6.2-0.3c-1.4,0.1-2.7-0.5-2.8-1.3
				c-0.1-0.8,0.9-1.5,2.3-1.6c3.1-0.2,10.4-0.2,11.5,2.4c0.3,0.8-0.5,1.6-1.9,1.8C941.9,329.4,941.7,329.4,941.5,329.4"/>
			<path class="st6" d="M911.2,317.7c-0.2,0-0.4,0-0.6,0c-1.3-0.2-2.2-0.9-1.9-1.7c0.5-1.2,2.8-3.4,8.5-3.7c1.4-0.1,2.6,0.5,2.8,1.3
				c0.1,0.8-0.9,1.5-2.3,1.6c-3.3,0.2-3.9,1.3-4,1.4C913.4,317.2,912.3,317.7,911.2,317.7"/>
			<path class="st6" d="M451.4,328.1c-3.6,0-7.4-0.1-11.4-0.4l0.5-2.9c25.2,1.5,44-2,55.8-10.5c8.8-6.3,10.2-13.1,10.2-13.2l5.1,0.3
				C511.6,301.8,505.7,328.1,451.4,328.1"/>
			<path class="st7" d="M386.8,277.8l9.7,23.6c3.9,9.5,20.8,15.5,37.6,13.2c16.7-2.2,27.2-11.9,23.3-21.4l-9.7-23.6L386.8,277.8z"/>
			<polygon class="st6" points="445.8,282.5 444.4,279.2 446.9,278.9 448.3,282.2 			"/>
			<path class="st6" d="M449.9,304l-2.3-0.7c3-3.2,3.9-6.9,2.4-10.3l-2.5-6.1l2.5-0.3l2.5,6.1C454.1,296.4,453.2,300.5,449.9,304"/>
			<path class="st7" d="M451.1,273.9l-64.1,8.6c-2.2,0.3-4.3-0.5-4.8-1.7c-0.5-1.2,0.8-2.5,3-2.7l64.1-8.6c2.2-0.3,4.3,0.5,4.8,1.7
				C454.6,272.4,453.2,273.6,451.1,273.9"/>
			<polygon class="st8" points="388.9,283 388.3,281.6 449.2,273.4 449.7,274.9 			"/>
			<path class="st7" d="M443.9,321.9c-1.7-6.9,3.7-11.5,3.7-11.5l-14.2,1.4l0,0l-0.5,0.1l-0.5,0l0,0l-13.8,2.4c0,0,8.4,2.7,12.3,9.3
				c3.9,6.6-0.5,19.2-0.5,19.2l14-1.9l1-0.1l14-1.9C459.4,338.9,445.6,328.8,443.9,321.9"/>
			<polygon class="st8" points="419.7,315.3 419.1,313.9 446.9,310.1 447.5,311.5 			"/>
			<path class="st7" d="M469,341.6c-1.7-2.4-6.2-3.8-10.7-3.2L431,342c-4.5,0.6-7.5,3-7.1,5.6L469,341.6z"/>
			<polygon class="st8" points="431,342.8 430.5,341.3 458.3,337.6 458.9,339 			"/>
			<polygon class="st5" points="480.6,356.7 425.4,364 418.9,348.3 474.1,340.9 			"/>
			<polygon class="st6" points="464.5,354.6 438.2,358.1 435,350.3 461.3,346.8 			"/>
			<path class="st6" d="M426.5,322.5c-0.2,0-0.4,0-0.6,0c-1.4-0.2-2.2-1-1.9-1.8c1.1-2.6,8.4-2.6,11.5-2.4c1.4,0.1,2.4,0.8,2.3,1.6
				c-0.1,0.8-1.4,1.4-2.8,1.3c-2.5-0.1-5.4,0-6.2,0.3C428.5,322.1,427.5,322.5,426.5,322.5"/>
			<path class="st6" d="M429.8,327.3c-0.2,0-0.4,0-0.6,0c-1.4-0.2-2.2-1-1.9-1.8c1.1-2.6,8.4-2.6,11.5-2.4c1.4,0.1,2.4,0.8,2.3,1.6
				c-0.1,0.8-1.4,1.4-2.8,1.3c-2.5-0.1-5.4,0-6.2,0.3C431.8,326.9,430.9,327.3,429.8,327.3"/>
			<path class="st6" d="M432.6,332.3c-0.2,0-0.4,0-0.6,0c-1.4-0.2-2.2-1-1.9-1.8c1.1-2.6,8.4-2.6,11.5-2.4c1.4,0.1,2.4,0.8,2.3,1.6
				c-0.1,0.8-1.4,1.4-2.8,1.3c-2.5-0.1-5.4,0-6.2,0.3C434.6,331.9,433.6,332.3,432.6,332.3"/>
			<path class="st6" d="M446.5,319.7c-1.2,0-2.2-0.5-2.5-1.1c-0.1-0.1-0.7-1.2-4-1.4c-1.4-0.1-2.5-0.8-2.3-1.6
				c0.1-0.8,1.3-1.4,2.8-1.3c5.8,0.3,8.1,2.4,8.5,3.7c0.3,0.8-0.6,1.6-2,1.7C446.8,319.7,446.7,319.7,446.5,319.7"/>
			<path class="st6" d="M891.8,193.3c-25.2-24.8-74.8-40.5-125.4-37.3c-41,2.9-48.7,12.4-81.9,12.4c-0.5,0-1,0-1.5,0.1
				c-0.5-0.1-1-0.1-1.5-0.1c-33.1,0-40.9-9.5-81.9-12.4c-50.6-3.2-100.2,12.5-125.4,37.3c-11.8,11.6-18.1,25.7-16.7,39.4
				c1.6,15.5,14.9,28.6,26.2,42.4c9.7,11.8,20.1,16.1,22.8,29.1c4.8,23.4-16.6,98.5,30,113.1c44.2,13.9,67-56.4,146.5-57.4
				c58.3,0,57.8,71.2,102,57.4c46.6-14.6,69.7-89.7,74.4-113.1c2.7-13.1,13.1-17.3,22.8-29.1c11.3-13.8,24.5-26.9,26.2-42.4
				C909.9,218.9,903.5,204.9,891.8,193.3"/>
			<path class="st9" d="M587.1,163.9c0,0,73.7,23.9,131.4,0.4c-11.2,2.8-21.4,4.2-36.9,4.1C653.5,174.1,615.4,170.1,587.1,163.9"/>
			<path class="st4" d="M654.7,232.7l-5.1-0.1c0.1-1.9-0.5-7.2-4-9.2c-0.8-0.5-1.7-0.7-2.8-0.6c-6,0.1-7.4,7.3-7.4,9.9l-5.1,0
				c0-0.5,0.2-12.6,12.4-12.8c2.5,0,4.7,0.5,6.5,1.5C654.8,224.5,654.7,231.8,654.7,232.7"/>
			<path class="st4" d="M735.7,232.7l-5.1-0.1c0.1-1.9-0.5-7.2-4-9.2c-0.8-0.5-1.7-0.7-2.8-0.6c-6,0.1-7.4,7.3-7.4,9.9l-5.1,0
				c0-0.5,0.2-12.6,12.4-12.8c2.5,0,4.7,0.5,6.5,1.5C735.9,224.5,735.7,231.8,735.7,232.7"/>
			<path class="st4" d="M685,255.2c-13.3,0-26.1-2.2-38.2-6.7l2.8-2.4c21.5,7.9,44.1,8.4,69.1,1.4l2.3,2.6
				C708.6,253.5,696.6,255.2,685,255.2"/>
			<path class="st4" d="M642.7,250.5l-1-2.9c4.1-0.5,5.6-1.5,5.1-3.8l5.1-0.4C652.8,247.3,649.5,249.8,642.7,250.5"/>
			<path class="st4" d="M723.4,252c-4.4-1-6.7-3.6-6-6.6l5.1,0.4c-0.3,1-0.2,2.8,2.8,3.5L723.4,252z"/>
			<path class="st10" d="M684.7,263.3c-5.4,0-10.8-0.3-16-1l1.1-2.8c9.3,1.2,18.6,1.3,28.4,0.2l1,2.9
				C694.3,263,689.5,263.3,684.7,263.3"/>
			<path class="st9" d="M614,235.5c0,1.7-4.7,3.1-10.4,3.1c-5.8,0-10.4-1.4-10.4-3.1c0-1.7,4.7-3.1,10.4-3.1
				C609.3,232.3,614,233.7,614,235.5"/>
			<path class="st9" d="M772.9,235.5c0,1.7-4.7,3.1-10.4,3.1c-5.8,0-10.4-1.4-10.4-3.1c0-1.7,4.7-3.1,10.4-3.1
				C768.2,232.3,772.9,233.7,772.9,235.5"/>
			<polygon class="st4" points="498.4,291.4 683.6,323.6 682.4,323.6 866.8,290.7 862,303.1 683.6,326.2 683,326.3 682.4,326.2 
				504.8,303.6 			"/>
			<path class="st7" d="M718.6,345.1c0,11.2-16,20.3-35.6,20.3c-19.7,0-35.6-9.1-35.6-20.3c0-11.2,16-20.3,35.6-20.3
				C702.7,324.9,718.6,333.9,718.6,345.1"/>
			<path class="st8" d="M683,361.6c-16,0-29-7.4-29-16.5c0-9.1,13-16.5,29-16.5c16,0,29,7.4,29,16.5C712,354.2,699,361.6,683,361.6
				 M683,330.1c-14.6,0-26.4,6.7-26.4,15c0,8.3,11.8,15,26.4,15c14.6,0,26.4-6.7,26.4-15C709.4,336.9,697.6,330.1,683,330.1"/>
			<path class="st6" d="M678.1,344v12.7h10.3v-23.1h-8c-1.2,2.2-4.1,5-12.1,5v4h6.8C677.3,342.6,678.1,342.7,678.1,344"/>
			<polygon class="st6" points="683.2,110.1 689,124.5 714.2,127.8 689,131.1 683.2,145.5 677.3,131.1 652.1,127.8 677.3,124.5 			
				"/>
			<polygon class="st6" points="603.6,95.3 607.7,105.6 625.9,108 607.7,110.4 603.6,120.7 599.4,110.4 581.2,108 599.4,105.6 			
				"/>
			<polygon class="st6" points="409.1,227.1 413.3,237.4 431.4,239.8 413.3,242.2 409.1,252.5 404.9,242.2 386.8,239.8 404.9,237.4 
							"/>
			<polygon class="st6" points="925.2,176.5 928.1,183.5 940.5,185.2 928.1,186.8 925.2,193.9 922.4,186.8 909.9,185.2 922.4,183.5 
							"/>
			<path class="st11" d="M1397.7,276.5c-22.3-22-66.2-35.9-111.1-33c-36.3,2.5-43.2,11-72.5,11c-0.4,0-0.9,0-1.3,0.1
				c-0.4-0.1-0.9-0.1-1.3-0.1c-29.4,0-36.2-8.4-72.5-11c-44.8-2.9-88.7,11-111.1,33c-10.4,10.3-16,22.7-14.7,34.9
				c1.5,13.8,13.2,25.4,23.2,37.6c8.6,10.4,17.8,21.5,20.2,33.1c4.2,20.7,10.1,98.3,51.3,111.3c39.1,12.3,53.4-69.2,105-69.2
				c51.6,0,65.8,81.5,105,69.2c41.3-12.9,47.1-90.6,51.3-111.3c2.4-11.6,11.6-22.6,20.2-33.1c10-12.2,21.7-23.8,23.2-37.6
				C1413.7,299.2,1408.1,286.7,1397.7,276.5"/>
			<path class="st4" d="M1195.4,354.3l-3.2-2.3c12.8-5.8,26.7-6.8,41.5-3.2l-2.1,2.7C1218.5,348.3,1206.7,349.2,1195.4,354.3"/>
			<path class="st4" d="M1177.2,334.4c-5.1,0-10.2-1.3-15.2-3.8l3.4-2.2c8,4.1,15.5,4.1,23.6,0l3.4,2.2
				C1187.5,333.1,1182.3,334.4,1177.2,334.4"/>
			<path class="st4" d="M1248.4,334.4c-5.1,0-10.2-1.3-15.2-3.8l3.4-2.2c8,4.1,15.5,4.1,23.6,0l3.4,2.2
				C1258.6,333.1,1253.5,334.4,1248.4,334.4"/>
			<path class="st10" d="M1211.1,357.9l-1.8-2.7c0.3-0.1,7.4-1.5,13.2-0.9l-1,2.9C1217.9,356.7,1212.7,357.5,1211.1,357.9"/>
			<path class="st7" d="M1099.5,465.1c5.9-2.9,10-7.3,9.1-11.7c-1-5-7.7-9.1-9.2-14c-1.9-6.5,5.5-13.1,2.8-19.5
				c-0.7-1.6-2-3.1-4.3-4.1c-5.7-2.5-14.1-0.6-20.8-2.1c-8-1.8-10.3-7.3-17.4-9.8c-1-0.3-2.3-0.5-3.2-0.1c-0.5,0.2-0.7,0.5-1,0.8
				c-3.1,4.7-1.6,10.9-1.2,15.8c0.5,8,2.5,16,5.1,23.9c2.4,7.2,4.1,15.4,11,21.7c0.1,0.1,0.2,0.2,0.3,0.2c1.6,1.4,3.7,2.7,6.5,3.4
				C1085.1,471.5,1093.9,467.8,1099.5,465.1"/>
			<path class="st7" d="M1190,264.7c21.7,4.6,44.8-2.4,66.9,0.5c11.7,1.6,21.7,6,27.5,11.9c4.4,4.5,6,9.5,9.7,14.2
				c4.9,6,14.1,11.1,25.3,12.7c15.5,2.2,33.5-1.9,47.3,2.7c5.1,1.7,8.8,4.5,12.6,7.1c3.8,2.6,7.8,5.2,13.2,6.6
				c5.4,1.4,12.5,1.2,16.5-1.3c1.8-1.1,2.8-2.6,3.6-4c4.9-9.1,3.6-18.9-1.3-28c-8.4-15.4-22.6-29-47-37.8c-25-9-57.5-11.1-86.4-9.3
				c-8.7,0.6-17.2,1.7-25.3,3.6c-9.2,2.1-17.9,5.1-27.3,6.8c-18.9,3.5-37.8-4.3-56-6.3c-3.6-0.4-8.3-0.4-9.8,1.5
				c-1.2,1.5,0.6,3.3,2.4,4.7c7.5,5.8,16.2,11.7,28.1,14.2C1189.8,264.7,1189.9,264.7,1190,264.7"/>
			<path class="st11" d="M1382.8,426c-1.6-16.3-9-33.4-22.1-50.9l4.7-1.1c13.3,17.8,20.8,35.3,22.5,51.9L1382.8,426z"/>
			<path class="st11" d="M1393.6,442.7c-0.4,0-0.7,0-1-0.1c-1.3-0.3-1.9-1.2-1.3-1.9c7-8.9-6.1-13.7-6.7-13.9
				c-1.2-0.4-1.6-1.3-0.8-2c0.7-0.7,2.3-0.9,3.5-0.5c0.2,0.1,17.6,6.3,8.7,17.6C1395.5,442.4,1394.6,442.7,1393.6,442.7"/>
			<path class="st11" d="M1383.7,442.7c-0.5,0-1-0.1-1.4-0.2c-1.2-0.4-1.5-1.3-0.7-2c8-6.8,1.3-14.6,1.2-14.7
				c-0.6-0.7-0.1-1.6,1.1-2c1.3-0.4,2.8-0.1,3.4,0.6c0.3,0.4,8.1,9.3-1.5,17.6C1385.3,442.5,1384.5,442.7,1383.7,442.7"/>
			<path class="st11" d="M1377.6,433.2c-0.1,0-0.3,0-0.4,0c-1.4-0.1-2.3-0.9-2.1-1.7c1.1-3.7,6.3-6.1,6.6-6.2
				c1.1-0.5,2.7-0.4,3.6,0.2c0.9,0.6,0.7,1.5-0.4,2c0,0-4,1.9-4.8,4.5C1379.9,432.7,1378.8,433.2,1377.6,433.2"/>
			<path class="st11" d="M1037.2,426l-5.1-0.2c1.6-16.6,9.2-34.1,22.5-51.9l4.7,1.1C1046.3,392.6,1038.8,409.8,1037.2,426"/>
			<path class="st11" d="M1026.4,442.7c-1,0-1.9-0.3-2.3-0.9c-8.9-11.3,8.5-17.5,8.7-17.6c1.2-0.4,2.8-0.2,3.5,0.5
				c0.7,0.7,0.4,1.6-0.8,2c-0.6,0.2-13.7,5-6.7,13.9c0.6,0.7,0,1.6-1.3,1.9C1027.1,442.7,1026.8,442.7,1026.4,442.7"/>
			<path class="st11" d="M1036.3,442.7c-0.8,0-1.6-0.2-2.1-0.6c-9.7-8.3-1.9-17.3-1.5-17.6c0.6-0.7,2.2-1,3.4-0.6
				c1.3,0.4,1.8,1.2,1.1,2c-0.1,0.1-6.7,7.9,1.2,14.7c0.8,0.7,0.5,1.6-0.7,2C1037.3,442.6,1036.8,442.7,1036.3,442.7"/>
			<path class="st11" d="M1042.4,433.2c-1.2,0-2.3-0.5-2.5-1.2c-0.8-2.6-4.7-4.4-4.8-4.5c-1.1-0.5-1.2-1.4-0.4-2
				c0.9-0.6,2.5-0.7,3.6-0.2c0.2,0.1,5.4,2.6,6.6,6.2c0.2,0.8-0.7,1.5-2.1,1.7C1042.7,433.2,1042.6,433.2,1042.4,433.2"/>
			<path class="st11" d="M309,238.5c-22.3-22-66.2-35.9-111-33c-36.3,2.5-43.2,11-72.5,11c-0.4,0-0.9,0-1.3,0.1
				c-0.4-0.1-0.9-0.1-1.3-0.1c-29.4,0-36.2-8.4-72.5-11c-44.8-2.9-88.7,11-111.1,33c-10.4,10.3-16,22.7-14.7,34.9
				c1.5,13.8,13.2,25.4,23.2,37.6c8.6,10.4,17.8,21.5,20.2,33.1c2.6,12.9,5.9,48.1,18,75.8l5.7,10.6l24-12.9l13.5,10.9l16.1-8.4
				L60,432.2l7.7-7.7c14.7-18.6,31.1-38.3,56.5-38.3c51.6,0,65.8,81.5,105,69.2c41.3-12.9,47.1-90.6,51.3-111.3
				c2.4-11.6,11.6-22.6,20.2-33.1c10-12.2,21.7-23.8,23.2-37.6C325,261.2,319.5,248.8,309,238.5"/>
			<path class="st4" d="M106.7,316.4l-3.2-2.3c12.8-5.8,26.7-6.8,41.5-3.2l-2.1,2.7C129.9,310.4,118,311.3,106.7,316.4"/>
			<path class="st2" d="M203.3,285.2c0,9.3-13.3,16.9-29.6,16.9c-16.4,0-29.6-7.6-29.6-16.9c0-9.3,13.3-16.9,29.6-16.9
				C190,268.3,203.3,275.9,203.3,285.2"/>
			<polygon class="st2" points="-12.9,212.5 -1.4,243.9 27.6,257.2 32.5,284.3 23.7,258.2 -9.2,245.4 -26.2,217.1 			"/>
			<path class="st6" d="M92.1,290.9c0,1.9-2.8,3.5-6.2,3.5s-6.2-1.6-6.2-3.5c0-1.9,2.8-3.5,6.2-3.5S92.1,288.9,92.1,290.9"/>
			<path class="st4" d="M86,295.8c-4.8,0-8.7-2.2-8.7-5c0-2.7,3.9-5,8.7-5c4.8,0,8.7,2.2,8.7,5C94.7,293.6,90.8,295.8,86,295.8
				 M86,288.8c-2,0-3.6,0.9-3.6,2.1c0,1.1,1.6,2.1,3.6,2.1c2,0,3.6-0.9,3.6-2.1C89.6,289.7,88,288.8,86,288.8"/>
			<path class="st6" d="M169.9,290.9c0,1.9-2.8,3.5-6.2,3.5c-3.4,0-6.2-1.6-6.2-3.5c0-1.9,2.8-3.5,6.2-3.5
				C167.1,287.3,169.9,288.9,169.9,290.9"/>
			<path class="st4" d="M163.7,295.8c-4.8,0-8.7-2.2-8.7-5c0-2.7,3.9-5,8.7-5c4.8,0,8.7,2.2,8.7,5
				C172.5,293.6,168.6,295.8,163.7,295.8 M163.7,288.8c-2,0-3.6,0.9-3.6,2.1c0,1.1,1.6,2.1,3.6,2.1c2,0,3.6-0.9,3.6-2.1
				C167.4,289.7,165.7,288.8,163.7,288.8"/>
			<polygon class="st2" points="-17.1,232.2 -34.2,251.3 -26.2,268.3 -36.3,278.2 -21,268.3 -27.9,251.3 -11.8,236 			"/>
			<polygon class="st2" points="26.6,257 58.1,260.5 69.4,272.3 56.3,261.9 27.6,259.2 			"/>
			<path class="st2" d="M157.6,221.4c0,3.9-15,7.1-33.4,7.1c-18.5,0-33.4-3.2-33.4-7.1c0-3.9,15-0.5,33.4-0.5
				C142.6,220.9,157.6,217.5,157.6,221.4"/>
			<polygon class="st2" points="264.8,414 245.7,397.3 203.3,397.3 187.8,379.1 149.7,365.4 190.6,377.3 207.2,393.7 248.9,392.7 
				268,404.6 			"/>
			<polygon class="st2" points="192.3,346.6 203.3,365.4 195.2,381.8 190.6,377.3 199.8,365.4 			"/>
			<polygon class="st2" points="164.1,389.7 183.2,391 192.2,394.9 201.3,394.9 203.3,397.3 190.6,397.3 182.2,392.3 			"/>
			<polygon class="st2" points="15.6,417.6 28.9,411.3 17.8,419.4 			"/>
			<polygon class="st2" points="45.2,420.1 51.3,416.3 47.1,421.6 			"/>
			<path class="st11" d="M293.1,392c-1.6-16.3-9-33.4-22.1-50.9l4.7-1.1c13.3,17.8,20.8,35.3,22.5,51.9L293.1,392z"/>
			<path class="st11" d="M303.9,408.7c-0.4,0-0.7,0-1-0.1c-1.3-0.3-1.9-1.2-1.3-1.9c7-8.9-6.1-13.7-6.7-13.9c-1.2-0.4-1.6-1.3-0.8-2
				c0.7-0.7,2.3-0.9,3.5-0.5c0.2,0.1,17.6,6.3,8.7,17.6C305.8,408.4,304.9,408.7,303.9,408.7"/>
			<path class="st11" d="M294,408.7c-0.5,0-1-0.1-1.4-0.2c-1.2-0.4-1.5-1.3-0.7-2c8-6.8,1.3-14.6,1.2-14.7c-0.6-0.7-0.1-1.6,1.1-2
				c1.3-0.4,2.8-0.1,3.4,0.6c0.3,0.4,8.1,9.3-1.5,17.6C295.7,408.5,294.9,408.7,294,408.7"/>
			<path class="st11" d="M287.9,399.2c-0.1,0-0.3,0-0.4,0c-1.4-0.1-2.3-0.9-2.1-1.7c1.1-3.7,6.3-6.1,6.6-6.2
				c1.1-0.5,2.7-0.4,3.6,0.2c0.9,0.6,0.7,1.5-0.4,2c0,0-4,1.9-4.8,4.5C290.2,398.7,289.1,399.2,287.9,399.2"/>
			<path class="st11" d="M-69,390.9c-1.3,0-2.4-0.5-2.5-1.3c-0.7-3-3-5.1-3.1-5.1c-0.8-0.7-0.4-1.6,0.7-2c1.2-0.4,2.8-0.3,3.5,0.4
				c0.1,0.1,3.1,2.7,3.9,6.4c0.2,0.8-0.8,1.5-2.2,1.6C-68.8,390.9-68.9,390.9-69,390.9"/>
			<path class="st7" d="M-75.2,387.5c-11.6,0-21.1,5.4-21.1,12v3.6h7.7v-3.6c0-4.2,6-7.6,13.4-7.6c7.4,0,13.4,3.4,13.4,7.6
				c0,1.2,1.7,2.2,3.8,2.2c2.1,0,3.8-1,3.8-2.2C-54.1,392.9-63.5,387.5-75.2,387.5"/>
			<rect x="-95" y="403.2" class="st4" width="5.1" height="54.2"/>
			<path class="st11" d="M-72.2,383.8l-4.7-1.1c1.2-1.7,2.4-3.4,3.5-5.1c6.9-10.3,14.1-20.9,41.5-30.2l2.6,2.5
				c-25.9,8.8-32.5,18.5-39.4,28.7C-69.8,380.4-71,382.1-72.2,383.8"/>
			<path class="st11" d="M-81.4,396.7c-0.8,0-1.6-0.2-2.1-0.6c-3.8-3-5-5.9-3.6-8.5c2.3-4.3,10.7-6.1,11-6.2
				c1.3-0.3,2.8,0.1,3.3,0.9c0.5,0.8-0.2,1.6-1.5,1.9c-0.1,0-6.4,1.4-7.9,4.3c-0.9,1.7,0.1,3.7,2.9,6c0.8,0.7,0.6,1.6-0.6,2
				C-80.4,396.6-80.9,396.7-81.4,396.7"/>
			<path class="st11" d="M-72,395c-0.5,0-1-0.1-1.5-0.3c-3.6-1.4-5.7-3.2-6.4-5.4c-1.3-4,3.2-7.7,3.4-7.8c0.8-0.7,2.4-0.8,3.6-0.4
				c1.2,0.5,1.4,1.4,0.6,2c-0.7,0.6-6.7,5.8,1.8,9.1c1.2,0.5,1.5,1.4,0.6,2C-70.4,394.8-71.2,395-72,395"/>
			<polygon class="st7" points="-88.4,457.5 -96.5,457.5 -95.8,452.8 -89.1,452.8 			"/>
		</g>
	</g>
</g>
</svg>
