<?xml version="1.0" encoding="utf-8"?>
<!-- Generator: Adobe Illustrator 24.0.2, SVG Export Plug-In . SVG Version: 6.00 Build 0)  -->
<svg version="1.1" id="Capa_1" xmlns="http://www.w3.org/2000/svg" xmlns:xlink="http://www.w3.org/1999/xlink" x="0px" y="0px"
	 viewBox="0 0 560 288" style="enable-background:new 0 0 560 288;" xml:space="preserve">
<style type="text/css">
	.st0{fill:#FEFEFE;}
	.st1{fill:#018ABE;}
	.st2{fill:#01B7C2;}
	.st3{fill:#01A0BF;}
	.st4{fill:#01CAC2;}
	.st5{fill:#01ABC0;}
	.st6{fill:#01BEC1;}
	.st7{fill:#02B5C1;}
	.st8{fill:#01A5BF;}
	.st9{fill:#0198BF;}
	.st10{fill:#02CDC3;}
	.st11{fill:#02A2BF;}
	.st12{fill:#B9D5E5;}
	.st13{fill:#BED9E8;}
	.st14{fill:#0291BE;}
	.st15{fill:#6BE3E8;}
	.st16{fill:#41CFD8;}
	.st17{fill:#019EBE;}
</style>
<g>
	<g>
		<path class="st0" d="M430.4,143.9c0,45.4-0.1,90.7,0.1,136.1c0,4.7-0.4,6.7-6.2,6.7c-90.2-0.2-180.5-0.2-270.7,0
			c-5.1,0-5.8-1.2-5.8-6c0.2-91.1,0.2-182.2-0.1-273.3c0-6,2.3-6,6.8-6c89.9,0.1,179.8,0.1,269.7-0.1c5.4,0,6.4,1.4,6.3,6.5
			C430.3,53.2,430.4,98.5,430.4,143.9z"/>
		<path class="st1" d="M411.8,131.5c-0.9,11.5-4.4,22.5-7.1,33.6c-1.7,3.3-3.5,2.6-5,0c-1.7-2.9-2.2-6.3-3.5-9.4
			c-7.6-14.8-21.6-18-34.1-7.6c-17.3,14.4-35.2,28-54,40.5c-3.6,2.4-7.2,5.7-12.3,3.9c-2.6-2.2-5.2-4.3-7.8-6.5
			c-1.5-8.5,6.4-11.7,10-17.4c10.5-14.8,25.7-24.3,40-34.6c6.9-5,10.5-10.4,10-19c-1.5-27.8,1.8-55.6,0.7-83.4
			c-0.2-3.9-2.3-10.9,6.5-9.2c29.1,5,41.6,27.1,52.3,51.1c2.5,5.7,4.5,11.6,4.5,18c3.9,6-0.5,13.5,3.5,19.5c0,3.2,0,6.4,0.1,9.6
			C412.5,123.6,414.7,128.4,411.8,131.5z"/>
		<path class="st2" d="M298.5,171.2c-3.2,5.2-8.7,8.7-10.5,14.8c-8.3,1.7-10.1,9.6-14.4,15.2c-2.1,2.6-2.2,6.7-6,8
			c-6.6,2.1-8.1-1.9-7.9-7.1c1.2-37.5-1.4-74.9,1.1-112.4c0.4-5.5-1.2-11-1.3-16.6c-1.8-9.6,4.8-14.5,10.9-19.5c0.7-3.5-2.5-3-4-3.4
			c-15.3-3.6-28.8-12.2-44-16.4c-4.7-1.3-11.6-1.6-11.9-9.3c22.2-6.9,43.5-3.4,62.1,9.5c10.7,7.5,18.8,7.7,28.3,0.3
			c1-0.8,2.5-1,3.8-1.5c3.9,4.3,3.4,9.7,3.4,14.9c-0.1,21.9,0,43.8,1.7,65.6c1.1,14.4-3.4,28.2-3.1,42.5
			C306.9,161.5,301.2,166,298.5,171.2z"/>
		<path class="st3" d="M298.5,171.2c7.6-22.3,8.3-44.9,7.1-68.5c-1.2-23.2-1.4-46.6-0.8-69.9c15.7-8.7,31.9-15.1,50.4-10.5
			c-4.4,0.4-4.8,3.7-4.2,6.9c3.7,19.3-1,38.5-0.3,57.8c0.5,13.8,4.6,29.5-1.7,41.1c-6,11-20.5,16.7-31.1,24.9
			C310.6,158.6,305.4,165.6,298.5,171.2z"/>
		<path class="st4" d="M260.8,70.6c2.7,7.8,4,15.5,3.1,24c-1.1,10.7-1.2,21.6-0.9,32.4c0.7,22.6-2.2,45.3,1.6,67.9
			c0.3,1.8-0.8,4.1-1.8,5.9c-2.9,5.5-0.5,7.7,4.8,8.5c-7.4,16.3-13.5,33.1-17.8,50.6c-1.4,5.6-1.7,14.8-11.9,14
			c-6.4-7.1-7.4-16.4-9.3-25.1c-3.6-15.9-7.2-31.8-7.3-48.2c1.5-16.5,2.8-33.1,5.1-49.5c1.1-7.7,4.6-14.6,5.1-22.2
			c2.9-9.4,6.1-18.7,8.7-28.2c1.8-9.9,8-17.6,13.2-25.8C254.9,72.2,257,69.6,260.8,70.6z"/>
		<path class="st5" d="M223.4,200.3c2.2,17,3.9,34.1,9,50.6c2.3,7.5,3.7,15.3,5.5,22.9c-20.1-14.5-33-34.8-44.5-56.2
			c3-21.5,1.2-43.2,2.9-64.6c1.4-17.8-1.1-35.5,0.4-53.3c1.1-13.5-1.1-27-1.7-40.6c11-2.4,18.2,5.1,26.4,10.1
			c3.1,4.6,3,9.9,2.8,15.1c-0.7,25.6,1.8,51.2-2.1,76.8c-0.9,6-1.3,12.5,1.6,18.4C224.3,186.4,224.9,193.4,223.4,200.3z"/>
		<path class="st6" d="M196,58c4.9,15.2,4,30.8,3.1,46.4c-0.4,7.4,1.1,14.9,1,22.3c-0.5,27.5-1.4,54.9-2,82.4
			c-0.1,3.8-1,6.8-4.8,8.4c-7.8-11.8-14-24.4-18.3-37.9c-1.3-2.6-1.1-5.4-1.1-8.2c0.3-37.8-0.3-75.7,0.9-113.5
			c4.1-6.9,8.9-13.3,14.6-19c0.4,0.3,0.8,0.6,1.2,0.9C191.9,46.1,196.1,51.4,196,58z"/>
		<path class="st7" d="M402.2,175.5c-9.1,26-21.7,50.1-39.6,71.2c-6.8,7.9-12.4,16.8-19.2,24.7c-6.1,7.1-11.3,6.1-14.2-2.9
			c-3.9-11.9-7-24-10.5-36c11.9-12.4,27-20.7,40.9-30.3c11.5-7.9,22.1-16.9,33.8-24.4C396.2,176,398.2,172.3,402.2,175.5z"/>
		<path class="st8" d="M402.2,175.5c-7.7,2.3-13.1,8.5-19,13.1c-17.9,14-38.4,24.3-55.2,39.7c-2.4,2.2-6.2,2.8-9.4,4.2
			c-6.2-6.6-7.9-15.5-11.5-23.5c26.2-16.7,50.3-36.4,75.1-55c6.1-4.6,11.2-4.4,16.7,0.5c2.5,3.2-1.4,9.9,5.8,10.6
			C403.9,168.6,403.1,172,402.2,175.5z"/>
		<path class="st9" d="M398.9,154.5c-7.3-3.4-13-2-18.2,4.5c-8.9,11-23.1,14.9-33.5,24.2c-6.1,5.5-13.4,9.8-19,16
			c-5.7,6.3-12.9,9-21.1,9.8c-3.8-5.5-7.6-11-11.4-16.5c22.9-12.5,43.3-28.5,63-45.3C373.8,134.5,389.5,136.7,398.9,154.5z"/>
		<path class="st10" d="M174.8,57.9c7.6,6.5,3.1,15.2,2.8,22.4c-1.1,28.8,0.1,57.5-0.5,86.2c-0.1,4.5,0.4,9.1-2.1,13.1
			c-7.6-4.3-8.3-12.7-10-19.5c-7.9-32.3-8.7-64.5,3.9-96.1C170.1,61.2,170.7,57.8,174.8,57.9z"/>
		<path class="st11" d="M210.7,24.6c1.2,1.2,2.2,3.2,3.6,3.5c20.6,5.6,39.2,17.1,60.4,21.3c5.8,1.1-0.6,3-1.2,4.5
			c-18.4,14.7-36.1,4.5-54-1.4c-10.3-3.4-20-7.9-29.5-13.1c0,0-0.6-0.4-0.6-0.4C194.1,30.7,202.4,27.6,210.7,24.6z"/>
		<path class="st12" d="M415.4,110.9c-6.4-5.6-2.5-13-3.5-19.5C419.3,96.8,414.9,104.3,415.4,110.9z"/>
		<path class="st13" d="M411.8,131.5c0.2-4-2-8.8,3.7-11C415.5,124.6,418,129.5,411.8,131.5z"/>
		<path class="st14" d="M190,39.4c5.2-1,9.3,1.5,13.7,3.6c14.5,7.3,30.5,10.7,45.6,16.4c4.4,1.7,8.8,0.1,11.7-2.2
			c4-3.1,8-3.5,12.5-3.4c-4.2,5.5-12.3,8.2-12.7,16.7C252,78.7,247,89.4,242.1,100c-1.9,0.9-0.1,4.7-3.5,4.5
			c-2.9-1.7-3.1-4.6-2.6-7.3c2.9-14.7-1.3-25-17-28.7c-8.4-1.9-15.6-6.4-23-10.5C191.9,52.5,188.3,46.8,190,39.4z"/>
		<path class="st15" d="M223.4,200.3c-0.3-6.9-0.6-13.8-0.9-20.7c-2.4-19-2-37.6,8.3-54.7c2.1-0.5,3.4-0.1,3.2,2.5
			C228.5,151.4,226.4,175.9,223.4,200.3z"/>
		<path class="st16" d="M234.1,127.4c-0.8-0.8-1.6-1.5-2.5-2.3c-2.8-9.1,1.7-15.5,8-21.1c0.3-1.6,0.5-3.3,2.4-4
			C241.5,109.8,237.6,118.5,234.1,127.4z"/>
		<path class="st17" d="M239.7,104c-2.7,7-6.9,13.5-8,21.1c-6.9,17.5-8.3,35.9-9.1,54.5c-7.1-4.8-4-12.3-3.2-17.9
			c3.5-26,0.9-51.9,1.7-77.9c0.2-5.1,0.9-10.5-2-15.2c19.7-0.7,20.5,6.6,20.2,25.8C239.2,97.6,236.5,100.9,239.7,104z"/>
	</g>
</g>
</svg>
