<?xml version="1.0" encoding="utf-8"?>
<!-- Generator: Adobe Illustrator 24.0.2, SVG Export Plug-In . SVG Version: 6.00 Build 0)  -->
<svg version="1.1" id="Capa_1" xmlns="http://www.w3.org/2000/svg" xmlns:xlink="http://www.w3.org/1999/xlink" x="0px" y="0px"
	 viewBox="0 0 560 288" style="enable-background:new 0 0 560 288;" xml:space="preserve">
<style type="text/css">
	.st0{fill:#FEFEFE;}
	.st1{fill:#0289BE;}
	.st2{fill:#01B5C2;}
	.st3{fill:#01C7C2;}
	.st4{fill:#01BBC1;}
	.st5{fill:#01A0BF;}
	.st6{fill:#02ACC0;}
	.st7{fill:#02B0C0;}
	.st8{fill:#01A1BF;}
	.st9{fill:#0294BE;}
	.st10{fill:#6BE3E8;}
	.st11{fill:#49D3DC;}
	.st12{fill:#01A2BF;}
</style>
<g>
	<g>
		<path class="st0" d="M194.8,337.9c-54.97,0-109.95-0.04-164.92,0.1c-3.41,0.01-4.08-0.67-4.08-4.08
			c0.12-109.95,0.12-219.89,0-329.84c0-3.41,0.67-4.08,4.08-4.08c109.95,0.12,219.89,0.12,329.84,0c3.41,0,4.08,0.67,4.08,4.08
			c-0.12,109.95-0.12,219.89,0,329.84c0,3.41-0.67,4.09-4.08,4.08C304.74,337.86,249.77,337.9,194.8,337.9z"/>
		<path class="st1" d="M226.25,80.77c9.51,1.68,15.07,8.38,19.84,15.9c8.08,12.74,7.63,26.7,5.41,40.82
			c-0.59,3.75-1.75,7.4-2.64,11.1c-2.77,0.92-2.82-1.52-3.47-2.96c-3.12-6.96-6.24-7.89-12.52-3.5
			c-8.24,5.74-15.57,12.68-23.93,18.25c-2.57,1.71-4.66,5.04-8.59,3.12c-1.8-1.53-2.72-3.96-5.07-4.92
			c0.48-5.56,5.41-8.23,8.02-12.41c4.75-4.65,9.51-9.3,15.36-12.58c3.72-2.08,5.21-5.14,5.16-9.42
			c-0.14-12.44-0.13-24.89,0.03-37.33C223.87,84.67,222.77,81.71,226.25,80.77z"/>
		<path class="st2" d="M203.28,147.58c-2.67,3.67-5.34,7.33-8.01,11c-4.47,0.73-5.52,4.56-7.16,7.86c-3.35-1.86-3.08-5.34-3.03-8.22
			c0.25-14.7-0.97-29.4,0.09-44.11c0.26-3.57,0.66-7.3-1.57-10.55c-1.62-3.42,1.09-5.05,2.93-7.05c-3.48,1.08-6.72-0.16-9.72-1.53
			c-6.19-2.84-12.49-5.37-18.81-7.88c-1.23-0.49-2.49-1.02-2.89-2.49c8.13-5.83,21.72-5.72,31.14,0.26c0.28,0.18,0.57,0.34,0.8,0.58
			c4.79,5.01,9.77,5,15,0.68c0.61-0.5,1.48-0.67,2.23-1c1.72,1.62,2.05,3.82,2.07,5.95c0.14,16.06,1.38,32.12-0.41,48.17
			C205.59,142.28,205.3,145.16,203.28,147.58z"/>
		<path class="st3" d="M183.36,102.75c2.49-0.17,3.2,0.05,3.28,3.41c0.37,14.11-1.3,28.19,0.15,42.36
			c0.6,5.89-0.88,12.04,1.31,17.93c-4.06,8.79-7.94,17.62-10.04,27.18c-0.59,2.67-0.83,7.03-5.69,6.67
			c-5.48-7.81-5.29-17.21-7.18-26c-0.61-2.86-1.29-5.83-0.76-8.84c0.71-7.85,1.33-15.7,2.43-23.52c0.51-3.64,2.15-6.92,2.41-10.55
			c1.23-4.19,2.82-8.28,3.74-12.56C174.83,112.42,177.64,106.65,183.36,102.75z"/>
		<path class="st4" d="M155.36,178.63c-12.02-17.45-19.45-36.56-18.38-57.94c0.6-11.93,4-23.46,13.39-32.1
			c1.79,3.52,3.24,7.2,5.42,10.53c2.61,4.99,2.04,10.5,1.57,15.61c-0.88,9.49,0.25,18.89-0.01,28.33
			c-0.29,10.77-0.8,21.54-0.2,32.32C157.23,176.8,156.78,178,155.36,178.63z"/>
		<path class="st5" d="M203.28,147.58c0.66-5.54,1.78-11.08,1.89-16.63c0.26-13.16,0.13-26.33-0.05-39.5
			c-0.03-2.07-1.1-4.14-0.84-6.33c6.84-3.91,13.94-6.5,21.98-4.36c-1.68,1.43-1.03,3.38-1.03,5.11
			c-0.05,13.54-0.11,27.08,0.03,40.62c0.03,2.98-0.84,5.31-3.34,6.65C214.87,136.93,209.36,142.62,203.28,147.58z"/>
		<path class="st6" d="M155.36,178.63c1.69-2.21-0.01-4.46,0.02-6.69c0.15-11.46,0.33-22.92,0.63-34.37
			c0.13-4.83-0.62-9.83-0.53-14.76c0.1-6,0.42-11.99,0.79-17.98c0.14-2.32-1.87-3.87-1.82-6.08c4.38-0.86,7.3,1.57,10.04,4.44
			c1.46,5.85,1.03,11.86,0.71,17.7c-0.66,11.94,0.05,23.81,0.56,35.7c0.07,2.92,0.49,5.86-0.25,8.75
			c1.3,10.86,2.58,21.72,6.35,32.09c0.33,0.9,0.36,1.91,0.53,2.87C164.67,194.67,159.9,186.74,155.36,178.63z"/>
		<path class="st7" d="M247.89,152.53c-0.66,5.22-3.46,9.63-5.75,14.16c-5.76,11.4-12.68,22.1-20.92,31.89
			c-3.48,4.14-6.02,3.66-7.62-1.43c-2.03-6.47-3.79-13.02-5.67-19.53c1.19-2.64,3.98-3.38,6.04-4.93
			c9.37-7.04,18.3-14.66,28.05-21.2C244.32,149.95,246.65,148.08,247.89,152.53z"/>
		<path class="st8" d="M247.89,152.53c-1.19-1.61-2.27-2.53-4.38-0.9c-9.56,7.4-19.28,14.59-28.83,22.01
			c-2.12,1.65-4.45,2.75-6.76,3.98c-2.37-4.79-4.42-9.75-7.58-14.12c2.97,0.31,5.01-1.77,7.02-3.25
			c8.19-6.02,16.35-12.12,24.13-18.66c6.58-5.54,13.58-4.43,15.21,4.07c0.23,1.18,0.35,2.76,2.15,2.93
			C248.53,149.9,248.21,151.22,247.89,152.53z"/>
		<path class="st9" d="M163.4,102.74c-2.99-1.33-5.97-2.66-8.96-4c-2.54-2.91-4.69-5.98-4.07-10.15c0.85-2.2,2.59-3.32,4.73-3.99
			c7.88,3.27,15.74,6.56,23.64,9.8c3.33,1.36,6.72,2.26,10.34,0.25c-1.66,3.04-4.81,4.78-5.72,8.09c-3.21,5.1-7.71,9.47-8.98,15.69
			c-1.41,2.02-1.4,4.81-3.54,6.42c-3.1-2.77-2.07-6.51-1.54-9.62C170.3,109.4,168.75,105.31,163.4,102.74z"/>
		<path class="st10" d="M165.5,165.34c-0.12-2.98-0.24-5.95-0.37-8.93c-0.27-7.03-0.95-14.09,1.11-20.99
			c0.61-2.04,1.05-4.16,2.74-5.68c1.04-0.47,1.66-0.29,1.57,1.01C167.96,142.14,166.89,153.76,165.5,165.34z"/>
		<path class="st11" d="M170.55,130.75c-0.37-0.37-0.75-0.73-1.12-1.1c-1.36-2.35,0.01-3.79,1.69-5.14
			c0.53-2.32,1.12-4.61,3.26-6.07C173.66,122.71,172.34,126.8,170.55,130.75z"/>
		<path class="st12" d="M171.12,124.51c-0.56,1.71-1.13,3.43-1.69,5.14c-3.1,8.65-4.11,17.64-4.3,26.76
			c-2.02-11.87-2.08-23.79-1.3-35.79c0.38-5.93-0.25-11.92-0.43-17.88c5.65,0.44,8.67,4.23,7.61,9.63
			C170.21,116.43,169.77,120.47,171.12,124.51z"/>
	</g>
</g>
<g>
</g>
<g>
</g>
<g>
</g>
<g>
</g>
<g>
</g>
</svg>
